<svg xmlns="http://www.w3.org/2000/svg" viewBox="0 0 850.39 850.39"><path fill="#514897" d="m534.94 399.09 29.7-2.73q-11.34 29.58-38.72 48.26-31.35 21.44-78.92 25.81-46 4.23-80.88-8.24t-54-41.28a137.54 137.54 0 0 1-22.38-64.5 150 150 0 0 1 11.83-74.68q15.42-35.51 46.07-55.41t72-23.7q35.13-3.24 63.71 7.91t45.31 35a109 109 0 0 1 19.49 53.66q3.27 35.55-16 66.27-24.12 38.78-67.06 42.72-11.56 1.06-17.79-2.44a19.62 19.62 0 0 1-8.9-11.13q-15 17.4-36.45 19.38-23.15 2.13-39.87-12.43t-19.17-41a104.44 104.44 0 0 1 12.9-61.5q19.27-34.93 54.13-38.15 24.81-2.28 38.4 15.59l2.06-15.79 36.8-3.39-11.74 101.83q-1.08 9.66-.82 12.45a7.55 7.55 0 0 0 2.08 5.08 5.07 5.07 0 0 0 4 1.39q6.69-.61 16.54-9.68 13.25-11.89 20.38-30.55A82.9 82.9 0 0 0 523 300.1q-3.12-34.3-30.06-55.1t-71.4-16.7q-37.77 3.47-62.63 21.29a98.2 98.2 0 0 0-35.6 47 134.3 134.3 0 0 0-8 59.42 100.55 100.55 0 0 0 19.76 52.17A86.7 86.7 0 0 0 380 439.55q27.86 8.61 62.42 5.43 33.32-3.06 56.44-14.53t36.08-31.36M379 355.65q1.63 17.72 9.58 25.41a22.59 22.59 0 0 0 18.54 6.73 30.2 30.2 0 0 0 14.56-5.28 36.9 36.9 0 0 0 9.64-9.74q6.62-9.18 10.48-26t2.57-30.88q-1.46-15.75-9.55-23.51a23.48 23.48 0 0 0-19.24-6.73q-12 1.09-21.31 11.31t-12.9 27.82q-3.59 17.64-2.37 30.87"/><path d="M850.36 819V298.16l-67.29-48.29-11-174.51-214.51 12.71-102.77-73.73c-2.16-1.64-20.2-14.3-42.77.5-4.17 2.74-46.83 32.61-126.8 88.78l.4.56-240.4 14.25 9.34 147.34-54.5 38.34V816.2H0l.06 2.8v1.93h.07c.88 12.19 10.23 24.85 24.62 24.85l800.61.31h.58c8.15-.7 22.78-6.93 24.31-25.14h.11Zm-63.24-504.59h35.8l-34.23 25.15Zm49.69 6.59v481.28L522.36 552.15Zm-5.94-20.17h-44.6l-2.11-33.51ZM419.46 26.17c15.15-9.94 26.64-1.41 27.07-1.09l89.55 64.26-226 13.4c68.83-48.35 105.63-74.1 109.38-76.57m340 63.52 16.27 259.42-264.36 194.3-63.63-50.62c-.76-.61-19-14.74-42.07.36-3.18 2.08-27.92 21.55-63.73 50L73.33 347.64 59.6 131.16ZM13.61 805.34v-484.4l317.31 230.93c-100.54 79.9-271.6 216.86-317.31 253.47m45.48-468.06-31.43-22.87h30Zm-2.31-36.43H28.25l27.31-19.22ZM825 832.53l-800.24-.32c-5.43 0-9.47-4.66-10.72-9.83l15-12H44v-12c139.78-111.94 360-288 369.08-293.87 14.42-9.45 25.09-1.93 26.2-1.09l369.18 293.63h-12.13v13.29h17.49v-9l22.94 18.25c-.9 10.81-9.49 12.65-11.76 12.94"/><path d="M201.47 797.05h17.5v13.29h-17.5zm-34.99 0h17.5v13.29h-17.5zm-34.99 0h17.5v13.29h-17.5zm-69.99 0H79v13.29H61.5zm35 0H114v13.29H96.5zm139.96 0h17.5v13.29h-17.5zm174.96 0h17.5v13.29h-17.5zm209.95 0h17.5v13.29h-17.5zm-69.98 0h17.5v13.29h-17.5zm34.99 0h17.5v13.29h-17.5zm69.98 0h17.5v13.29h-17.5zm34.99 0h17.5v13.29h-17.5zm69.99 0h17.5v13.29h-17.5zm-35 0h17.5v13.29h-17.5zm-209.95 0h17.5v13.29h-17.5zm-174.95 0h17.5v13.29h-17.5zm34.99 0h17.5v13.29h-17.5zm-69.98 0h17.5v13.29h-17.5zm-35 0h17.5v13.29h-17.5zm209.95 0h17.5v13.29h-17.5zm-34.99 0h17.5v13.29h-17.5z"/></svg>