<svg xmlns="http://www.w3.org/2000/svg" viewBox="0 0 850.39 850.39"><path d="m769.83 67.05-.82-.21-90.37-1c1.57-24.05 2.19-44.22 2.41-58.79l.1-7-488.23.82.18 7.13c.4 16.56 1.2 36.18 2.7 57.93l-84.54.94-.82.21c-11.83 3.07-34.15 16.38-33.9 44.78v.22c.1 2.47 2.77 61.22 31.5 129.58C125 281.87 147.46 317 174.9 346c33 34.83 73.15 60.85 119.51 77.41q5.71 8.55 11.73 16.5c31.77 42 64.48 68.93 97.66 80.62.42 16.31-.51 60.18-20.93 82.5-8 8.76-18 13.07-30.49 13.18l-17.79.15.21 23.87h-74.6v210.16h364.12V640.22H552l-.23-25.76-17.66.15h-.48c-12.29 0-22.2-4.13-30.29-12.63-20.69-21.75-22.71-65.1-22.69-81.74 32.74-12 64-39.25 93.44-81.58q4.86-7 9.52-14.46c47.33-16.51 88.29-42.81 121.79-78.21 27.44-29 49.93-64.12 66.85-104.36 28.74-68.36 31.4-127.11 31.5-129.58v-.22c.25-28.4-22.09-41.71-33.92-44.78M213.41 204.92q14.88 77.58 39.29 138-3.8-2.26-7.49-4.68c-59.37-38.83-96.49-105-110.32-196.72v-.16c0-.07-1-7.19 3.26-12.71 3.45-4.43 9.6-7 18.29-7.72l44.3-.59c2.97 26.89 7.08 55.47 12.67 84.58M121 236.68c-27.33-64.83-30.45-122.37-30.59-125.09-.12-22.33 18.83-29.61 22.81-30.9l83.61-.92c.68 8.64 1.48 17.58 2.4 26.75l-43.22.57h-.44c-12.87 1-22.42 5.36-28.4 13.06-7.76 10-6.25 21.85-6 23.45 7.88 52.23 23.47 97.26 46.34 133.82 18.68 29.87 42.27 54.24 70.1 72.44a222 222 0 0 0 23.88 13.59 447 447 0 0 0 20.71 40.3c-73.26-30.92-127.42-87.03-161.2-167.07m489.45 599.84H274.08V654.1h336.37Zm-117.21-225c10.83 11.4 24.58 17.17 41 17h3.79l.1 11.76H348.67l-.09-10.11h3.92c16.34-.14 30-6.09 40.61-17.68 22.23-24.31 24.8-67.34 24.65-87.86a111.5 111.5 0 0 0 24.16 2.7h2.25a110.5 110.5 0 0 0 22.57-2.84c.31 20.51 3.85 63.21 26.5 87.03m69.42-180.78c-37.46 54-77.43 81.74-118.78 82.59-42.26.84-84.92-26.65-126.68-81.81-4.43-5.84-8.67-11.91-12.76-18.14l.36-1.06-1.34-.47a415 415 0 0 1-30.67-57.35l.38-.84-.94-.44c-42.66-97-57.72-214.86-62.92-294.07h8.88V45.27h-9.72c-.61-11.2-1-21.46-1.31-30.55L667 13.9c-1.59 73.31-14.34 287.23-104.34 416.84m196.77-194.49c-34.24 81.44-89.56 138.14-164.6 168.84q10.29-18.58 19.42-39.46a222.5 222.5 0 0 0 28.4-15.75c27.84-18.2 51.43-42.57 70.11-72.44 22.87-36.56 38.46-81.58 46.34-133.81.25-1.59 1.77-13.47-6-23.46-6-7.7-15.54-12.09-28.41-13.06l-48.75-.66-.19 13.87 48.11.64c8.61.68 14.74 3.25 18.2 7.62 4.42 5.57 3.35 12.8 3.35 12.81v.16c-13.83 91.7-51 157.89-110.32 196.72q-6.16 4-12.64 7.64c16.08-41 29.09-87.72 38.92-140a1170 1170 0 0 0 16.3-126.21l89.37 1c4.06 1.3 22.96 8.6 22.81 30.89-.13 2.74-3.19 59.88-30.42 124.66"/><path d="M269.01 45.27h16.94v13.87h-16.94zm67.77 0h16.94v13.87h-16.94zm-33.88 0h16.94v13.87H302.9zm-67.77 0h16.94v13.87h-16.94zm338.83 0h16.94v13.87h-16.94zm-33.89 0h16.94v13.87h-16.94zm67.77 0h16.94v13.87h-16.94zm33.88 0h16.94v13.87h-16.94zm-135.53 0h16.94v13.87h-16.94zm-135.53 0h16.94v13.87h-16.94zm33.88 0h16.94v13.87h-16.94zm33.89 0h16.94v13.87h-16.94zm33.88 0h16.94v13.87h-16.94zm85.85 632.03H326.37v136h231.79Zm-13.88 122.14h-204V691.18h204Z"/></svg>