<svg xmlns="http://www.w3.org/2000/svg" viewBox="0 0 850.39 850.39"><path fill="#514897" d="M211.78 532.91v.69L267 556.84v31L182.33 546v-26.26L267 478.05V509ZM367 609.57h-23.42l49.46-181h23.54Zm179.68-76.32v-.69L490.92 509v-30.95l85.31 41.69v26.34l-85.31 41.85v-30.87Z"/><path d="M53.58 681h632.73V304.16H53.58Zm8.48-368.39h615.77v47.18H62.06Zm0 55.66h615.77v304.28H62.06Z"/><path d="M90.68 319.35a15.49 15.49 0 1 0 15.49 15.49 15.51 15.51 0 0 0-15.49-15.49m0 22.5a7 7 0 1 1 7-7 7 7 0 0 1-7 7m36.32-22.5a15.49 15.49 0 1 0 15.48 15.49A15.51 15.51 0 0 0 127 319.35m0 22.5a7 7 0 1 1 7-7 7 7 0 0 1-7 7"/><path d="m824.67 293 25.72-10.42-.2-3.06a215 215 0 0 0-3.65-27.42l-.6-3-27.44-3.66-9.5-23.53L826 200l-1.54-2.5a149 149 0 0 0-16.61-22.13l-2-2.19-25.57 10.34-20-15.52 3.62-27.09-4-2.66-.57-.31c-7.74-3.58-15.74-7.27-23.82-9.76l-2.8-.86-17 21.87-25-3.5-10.38-26.26-3.08.21c-9 .59-18.2 1.21-27.43 3l-3 .59-3.65 27.47L619 160.82l-21.87-17-2.5 1.55A149.3 149.3 0 0 0 572.54 162l-2.19 2 7.8 19.27h-.56v9.69h.48l-12.9 16.64-27.36-3.65-1.39 2.58a163 163 0 0 0-11 25.76l-1 2.84 21.94 17.06-1.13 8.05h-247v-2.82h-9.69v2.82H69.92a42.1 42.1 0 0 0-42 42.05v395.16H0v29.63c0 12.12 18.08 21.25 42.05 21.25h659.37c24 0 42.05-9.13 42.05-21.25v-29.63h-27.88v-85h2.81v-9.69h-2.81v-156c.81-.19 1.63-.38 2.45-.6l2.73-.73 3.64-27.23 23.52-9.51 21.89 17 2.5-1.54a149 149 0 0 0 22.14-16.61l2.18-2L786.3 382l15.52-20 27.36 3.64 1.39-2.57a163 163 0 0 0 11-25.76l1-2.84-21.89-17ZM36.35 304.23a33.61 33.61 0 0 1 33.57-33.57h603.61a33.58 33.58 0 0 1 33.58 33.57v395.22H36.35ZM735 707.93v21.15c0 5.33-12.77 12.77-33.57 12.77H42.05c-20.8 0-33.57-7.44-33.57-12.77v-21.15Zm-31.73-433.44a41.77 41.77 0 0 0-29.74-12.31h-74.6a88.36 88.36 0 1 1 116.66 106.15v-64.1a41.82 41.82 0 0 0-12.32-29.74M832.6 337.4a155 155 0 0 1-8.13 19l-26.36-3.51-21.5 27.75 9.94 24.57a141 141 0 0 1-16.19 12.14l-21.09-16.41-32.62 13.2-1.06 8v-44.8a96.84 96.84 0 1 0-125.42-115.16H553.8l1.64-11.73-21-16.37a154 154 0 0 1 8.13-19l26.35 3.52 21.51-27.75-9.95-24.57a140.6 140.6 0 0 1 16.19-12.14l21.11 16.42L651 156.72l3.49-26.25a203 203 0 0 1 20.28-2.16l9.92 25.1 34.74 4.87 16.41-21.09c6.32 2.18 12.74 5.1 19 8l-3.54 26.54 27.7 21.49 24.58-9.94a143 143 0 0 1 12.14 16.19l-16.4 21.09 13.18 32.62 26.3 3.51a205 205 0 0 1 2.7 20.31l-24.43 9.89-5.56 34.11Z"/><path d="M288.56 233.66h9.69v12.85h-9.69zm0-25.7h9.69v12.85h-9.69zm9.69-15.06h2.21v-9.69h-11.9v11.9h9.69zm191.83-9.69h14.59v9.69h-14.59zm-58.35 0h14.59v9.69h-14.59zm116.69 0h14.59v9.69h-14.59zm-29.17 0h14.59v9.69h-14.59zm-58.35 0h14.59v9.69H460.9zm-58.34 0h14.59v9.69h-14.59zm-58.34 0h14.59v9.69h-14.59zm-29.17 0h14.59v9.69h-14.59zm58.34 0h14.59v9.69h-14.59zm429.72 334.44h9.69v14.15h-9.69zm0-28.29h9.69v14.15h-9.69zm0-28.29h9.69v14.15h-9.69zm0-56.59h9.69v14.15h-9.69zm0-28.29h9.69v14.15h-9.69zm0 56.58h9.69v14.15h-9.69zm0 113.17h9.69v14.15h-9.69zm0 28.29h9.69v14.15h-9.69zm0 30.5h-2.21v9.69h11.9v-11.9h-9.69zm-35.21 0h16.5v9.69h-16.5zm-33 0h16.5v9.69h-16.5z"/></svg>