<svg xmlns="http://www.w3.org/2000/svg" viewBox="0 0 850.39 850.39"><path fill="#fff" d="M839.61 46a36.64 36.64 0 0 0-26.07-10.81l-384.16-1A36.91 36.91 0 0 0 392.49 71l-.07 93-231.21.28a35.08 35.08 0 0 0-35.05 35.11l.7 587.26A35.16 35.16 0 0 0 162 821.7l259-.32a35.08 35.08 0 0 0 35.05-35.12v-33.71l357 .89a36.87 36.87 0 0 0 36.87-36.86l.46-644.53A36.6 36.6 0 0 0 839.61 46M438.25 803.54A24.22 24.22 0 0 1 421 810.7l-259 .3a24.46 24.46 0 0 1-24.43-24.38l-.3-255.23H145l.25 207.09a15 15 0 0 0 15 15l262.19-.31a15.05 15.05 0 0 0 15-15l-.61-500.48a15 15 0 0 0-15-15l-262.16.31a15.05 15.05 0 0 0-15 15l.33 282.73h-7.77l-.38-321.35A24.39 24.39 0 0 1 161.22 175l259-.31A24.41 24.41 0 0 1 444.68 199l.7 587.25a24.23 24.23 0 0 1-7.13 17.29m-15.77-61.21-262.19.32a4.2 4.2 0 0 1-4.16-4.17L155.52 238a4.17 4.17 0 0 1 4.16-4.17l262.18-.32a4.2 4.2 0 0 1 4.16 4.17l.61 500.47a4.17 4.17 0 0 1-4.17 4.17Zm22.57-568.12a34.8 34.8 0 0 0-16.66-9.29v-54.59a4.83 4.83 0 0 1 4.81-4.81l377.12.94a4.86 4.86 0 0 1 4.83 4.85l-.4 554.31a4.83 4.83 0 0 1-4.81 4.8l-354-.87-.58-470.55a34.84 34.84 0 0 0-10.31-24.79m394.2 542.37a26.2 26.2 0 0 1-26.18 26.18l-357-.89-.07-61.79 354 .87a15.36 15.36 0 0 0 15.33-15.33l.41-554.3a15.4 15.4 0 0 0-15.34-15.38L433.27 95a15.36 15.36 0 0 0-15.34 15.33v53.65h-14.76l.07-93a26.21 26.21 0 0 1 26.18-26.17l384.16 1A26.19 26.19 0 0 1 839.71 72Z"/><path fill="#fff" d="M619.13 689.33A19.89 19.89 0 1 0 639 709.24a19.89 19.89 0 0 0-19.89-19.91Zm0 29.1a9.21 9.21 0 0 1 0-18.42 9.21 9.21 0 1 1 0 18.42M713.4 72.44H531a5.43 5.43 0 0 0 0 10.86h182.4a5.43 5.43 0 1 0 0-10.86m-421.62 688.5a19.07 19.07 0 0 0 0 38.13A19.1 19.1 0 0 0 310.85 780a19.09 19.09 0 0 0-19.07-19Zm0 27.45a8.39 8.39 0 0 1-5.92-14.31 8.6 8.6 0 0 1 5.93-2.46 8.39 8.39 0 1 1 0 16.77Zm65.66-593.12H224.78a5.34 5.34 0 0 0 0 10.68h132.66a5.34 5.34 0 1 0 0-10.68M67.11 518.58a112 112 0 0 0 15 6.53L85.62 515a101.6 101.6 0 0 1-13.54-5.9Zm1.06-199.03 4.87 9.5a101.4 101.4 0 0 1 13.59-5.75l-3.43-10.11a111 111 0 0 0-15.03 6.36m-26.49 18.88 7.39 7.71a102.4 102.4 0 0 1 11.37-9.42l-6.2-8.7a113 113 0 0 0-12.56 10.41m-23.84 80.91c0-2.63.1-5.29.3-7.91l-10.65-.82c-.22 2.89-.34 5.83-.34 8.72 0 2.5.09 5.05.26 7.58l10.65-.71c-.15-2.29-.22-4.6-.22-6.86"/><path d="m20.11 440.81-10.43 2.26a111.4 111.4 0 0 0 4.59 15.65l10-3.75a102 102 0 0 1-4.16-14.16"/><path fill="#fff" d="M40.81 499.41A114 114 0 0 0 53.26 510l6.29-8.63a102 102 0 0 1-11.26-9.54ZM21.1 473.53a113 113 0 0 0 8.9 13.65l8.49-6.47a102 102 0 0 1-8.06-12.36Zm.59-109.42 9.31 5.27a102 102 0 0 1 8.2-12.28l-8.43-6.56a112 112 0 0 0-9.08 13.57m2.96 18.61-10-3.86a113 113 0 0 0-4.77 15.62l10.42 2.36a101.4 101.4 0 0 1 4.35-14.12m291.82 138.01h15.56v10.68h-15.56zm-218.64 8.64A112 112 0 0 0 114 531.3l.48-10.67a102.4 102.4 0 0 1-14.65-1.74Zm156.43-8.64h15.56v10.68h-15.56zm93.32 0h15.56v10.68h-15.56zm-62.21 0h15.56v10.68h-15.56zm-62.22 0h15.55v10.68h-15.55zm-62.22 0h15.56v10.68h-15.56zM99 309.09l1.92 10.51a101.4 101.4 0 0 1 14.66-1.6l-.37-10.68A114 114 0 0 0 99 309.09m93.04 211.64h15.55v10.68h-15.55zm121.91-46.69-3.79-54.55 376.81 94.02zm373.02 39.47L321.14 629.86l-6.5-47.31z"/><path fill="#fff" d="m686.97 513.51-426.29 69.04 52.29-96.43z"/></svg>