<svg xmlns="http://www.w3.org/2000/svg" viewBox="0 0 850.39 850.39"><g fill="#fff"><path d="M802 177.78h-90.46L658.19 2.25 657.51 0l-10.06 33.1-44 144.68H48.41A21.49 21.49 0 0 0 27 199.24v495.57a21.49 21.49 0 0 0 21.46 21.46h262a106.8 106.8 0 0 1 2.44 27l-.21 5.4a120 120 0 0 1-1.69 13.4c-4.41 24.24-41.78 29.28-42.15 29.33v.38H246a21.48 21.48 0 0 0-21.46 21.45v15.7A21.48 21.48 0 0 0 246 850.39h358.44a21.48 21.48 0 0 0 21.46-21.46v-15.7a21.48 21.48 0 0 0-21.46-21.45h-22.88v-.38c-.37 0-37.72-5-42.14-29.33a123 123 0 0 1-1.9-18.81 106.4 106.4 0 0 1 2.48-27h262a21.48 21.48 0 0 0 21.46-21.46V199.24A21.48 21.48 0 0 0 802 177.78M592.76 664.27H72.17V216.7h520.6Zm11.53-448.6c7.24-10 14.84-15.07 22.59-15.09 11.75 0 21.7 11.25 24.82 15.19v448.5h-47.42Zm59 448.59V215.68c7.24-10 14.84-15.09 22.6-15.1 11.76 0 21.7 11.25 24.82 15.19v448.5Zm59-447.56h56v447.57h-56Zm-36.33-27.64c-10.31 0-19.9 5.24-28.58 15.54-6-6.37-16.88-15.54-30.4-15.54a31.2 31.2 0 0 0-16.26 4.7l29.51-97.12 31.47-10.52 33.08 108.81a35.6 35.6 0 0 0-18.87-5.87Zm-17.62-114-24 8 13.22-43.5ZM527.65 719.63c-.07.41-.15.82-.21 1.22-.15.91-.27 1.81-.4 2.72 0 .19 0 .37-.08.56q-.44 3.36-.68 6.73v.32c-.07 1-.13 2-.17 3v.75c0 .86-.06 1.72-.07 2.58v.19H324.42a118.4 118.4 0 0 0-2-19.88H528c-.16.61-.25 1.18-.35 1.81m86.73 93.6v15.7a10 10 0 0 1-9.94 9.94H246a10 10 0 0 1-9.94-9.94v-15.7a9.94 9.94 0 0 1 9.94-9.93h358.44a9.94 9.94 0 0 1 9.94 9.93m-65.86-21.45H301.88c9.5-5.84 18-14.6 20.4-27.66a134 134 0 0 0 1.82-14.89h202.21a133 133 0 0 0 1.81 14.9c2.38 13.05 10.88 21.81 20.4 27.65m263.4-97a10 10 0 0 1-9.94 9.94H48.41a10 10 0 0 1-9.94-9.94V199.24a10 10 0 0 1 9.94-9.94H600l-4.82 15.88H60.65v470.61h729.1V205.18h-69.88L715 189.3h87a10 10 0 0 1 9.94 9.94Z"/><path d="M416.36 506.31h-11.52v5.08h-5.08v11.52h16.6zm-159.48 5.08h20.57v11.52h-20.57zm-71.44 0h20.57v11.52h-20.57zm35.72 0h20.57v11.52h-20.57zm107.16 0h20.57v11.52h-20.57zm35.72 0h20.57v11.52h-20.57zm-193.75 0h-5.08v-5.08h-11.52v16.6h16.6zm-16.6-74.74h11.52v20.06h-11.52zm0-34.82h11.52v20.06h-11.52zm0 69.65h11.52v20.06h-11.52zm0-139.3h11.52v20.06h-11.52zm0 34.82h11.52v20.06h-11.52zm0-69.65h11.52v20.06h-11.52zm11.52-19.85h5.08v-11.51h-16.6v16.6h11.52zm127.39-11.51h20.57v11.52H292.6zm71.44 0h20.57v11.52h-20.57zm-35.72 0h20.57v11.52h-20.57zm-107.16 0h20.57v11.52h-20.57zm-35.72 0h20.57v11.52h-20.57zm71.44 0h20.57v11.52h-20.57zm147.96 16.6h11.52v-16.6h-16.6v11.51h5.08zm0 49.59h11.52v20.06h-11.52zm0 69.65h11.52v20.06h-11.52zm0-104.48h11.52v20.06h-11.52zm0 139.3h11.52v20.06h-11.52zm0 34.83h11.52v20.06h-11.52z"/><path d="M425.24 625.19a126 126 0 0 0 0-252q-4.49 0-8.88.32V367h-11.52v7.89c-59.8 9.78-105.58 61.8-105.58 124.32q0 6.17.59 12.18h-7.25v11.52h8.9c11.12 58.17 62.37 102.28 123.74 102.28m-114.46-126a114.66 114.66 0 0 1 94.06-112.64v.49h11.52v-2c2.93-.22 5.89-.34 8.88-.34a114.46 114.46 0 1 1-112.07 137.84v-11.15h-1.74a114 114 0 0 1-.65-12.18Z"/><path d="m286.88 415.15 48.53 84.06 48.53 84.06H189.81l48.53-84.06z"/></g></svg>