<svg xmlns="http://www.w3.org/2000/svg" viewBox="0 0 850.39 850.39"><g fill="#fff"><path d="M850.34 294a43.56 43.56 0 0 0-5.4-19.19l-10.6 5.84a31.5 31.5 0 0 1 3.91 13.91Zm-142.19-42h17.35v12.1h-17.35zm34.7 0h17.35v12.1h-17.35zm95.44 129.05h12.1v17.35h-12.1zM830.6 427l9.19 7.88a44.2 44.2 0 0 0 9.21-17.73l-11.72-3A32.05 32.05 0 0 1 830.6 427m7.69-115.35h12.1V329h-12.1zm-68.55 126.49h17.35v12.1h-17.35zm68.55-91.79h12.1v17.35h-12.1zm-25.14-93.82-1.87 12a32.1 32.1 0 0 1 13.4 5.41l7-9.89a44.1 44.1 0 0 0-18.53-7.52m-35.6-.53h17.35v12.1h-17.35zm28.75 186.14h-1.87v12.1h1.87a43.65 43.65 0 0 0 17.45-3.59L819 435.54a31.9 31.9 0 0 1-12.7 2.6M578.57 78.4h8.81v12.1h-8.81zM317.97 252h17.9v12.1h-17.9zm35.79 0h17.9v12.1h-17.9zM328.02 78.4h17.9v12.1h-17.9zm-35.8 0h17.9v12.1h-17.9zM246.38 252h17.9v12.1h-17.9zm35.79 0h17.9v12.1h-17.9zM256.43 78.4h17.9v12.1h-17.9zm107.38 0h17.9v12.1h-17.9zm178.97 0h17.9v12.1h-17.9zm-35.8 0h17.9v12.1h-17.9zm-35.79 0h17.9v12.1h-17.9zm-71.59 0h17.9v12.1h-17.9zm35.8 0h17.9v12.1h-17.9zM72.3 107.25l-10.63-5.78a44.1 44.1 0 0 0-5.31 19.86l12.1.31a31.54 31.54 0 0 1 3.84-14.39M103.2 252h17.9v12.1h-17.9zM96.17 90.79l-1.59-12a44.15 44.15 0 0 0-19.18 7.4l6.88 10a31.94 31.94 0 0 1 13.89-5.4M220.64 78.4h17.9v12.1h-17.9zm-164.3 60.98h12.1v17.9h-12.1zm12.96 88.01a32 32 0 0 1-.85-7.39v-9H56.34v9a44.4 44.4 0 0 0 1.18 10.17Zm-12.96-52.21h12.1v17.9h-12.1zM76 240.69l-9.23 7.83a44.3 44.3 0 0 0 16.56 12.15l4.69-11.16A32.26 32.26 0 0 1 76 240.69M174.79 252h17.9v12.1h-17.9zm10.05-173.6h17.9v12.1h-17.9zM210.58 252h17.9v12.1h-17.9zM113.25 78.4h17.9v12.1h-17.9zM139 252h17.9v12.1H139zm10.05-173.6h17.9v12.1h-17.9z"/><path d="M749.54 313.13 690.8 257.8V252h-6.16l-50.3-47.38h-242V252h-2.76v12.1h2.76v143.19H273l-52.74-75.49H24.36A24.57 24.57 0 0 0 0 356.54v460a17 17 0 0 0 0 1.74v4.48h.61a22.7 22.7 0 0 0 4 8.2 22.45 22.45 0 0 0 18 8.88h472.26a22.52 22.52 0 0 0 21.69-16.43L567.4 684h182.14V450.24h2.77v-12.1h-2.77Zm-31.7-11.33h-71.91v-67.73ZM24.36 343.91H214l52.76 75.49h125.63v81.24H129.88a22.64 22.64 0 0 0-21.74 16.42l-96 263.24V356.54a12.46 12.46 0 0 1 12.22-12.63M505.1 819.53l-.16.52a10.42 10.42 0 0 1-10.07 7.71H22.61a10.53 10.53 0 0 1-10.5-10.64V817a10.5 10.5 0 0 1 .3-2.22L119.59 521l.16-.49a10.5 10.5 0 0 1 10.13-7.74h472.25c8.45 0 9.67 10.28 9.84 13.76Zm232.34-147.59H571.81l51.92-142.36.37-1v-1.07c0-15.82-9-26.87-22-26.87H404.5V216.72h225l4.28 4v93.15h98.9l4.72 4.45Z"/><path d="M542.82 545.1H167.13a19.24 19.24 0 0 0-18.45 13.82l-31.22 78.56-.22.65a19.22 19.22 0 0 0 18.55 24.21h375.7a19.15 19.15 0 0 0 18.41-13.84l31.64-79.63v-1.16c0-13.32-7.7-22.61-18.72-22.61m-24.29 99.23-.22.69a7 7 0 0 1-6.82 5.21h-375.7a7.13 7.13 0 0 1-6.94-8.65L160 563.1l.22-.65a7.13 7.13 0 0 1 6.87-5.25h375.73c5.41 0 6.4 6.69 6.57 9.44Z"/><circle cx="604.52" cy="81.07" r="49.04"/><circle cx="184.27" cy="255.08" r="49.04"/><circle cx="304.61" cy="81.07" r="71.3"/></g></svg>