<svg xmlns="http://www.w3.org/2000/svg" viewBox="0 0 850.39 850.39"><path d="M704.85 3.41c-.63.26-63.64 25.6-137.77 75.3-43.57 29.2-82.45 61-115.58 94.52-41.53 42-74.08 86.85-96.77 133.3l-5.54 11.35c-21.21 1.7-52.68 8.08-88.47 27.93-42.43 23.54-82.27 60.89-118.41 111l-2 2.73L172 540.2l6.64-6.26c.46-.44 30.5-28.57 66.11-49.43-7.5 8.61-14.64 17.59-20.78 26.24-27.61 38.91-56.83 126-58.06 129.71l-6.43 19.25 16-12.42c3.08-2.38 75.65-58.74 103.25-97.65a346.4 346.4 0 0 0 34.87-62.49 73.3 73.3 0 0 0 13 12.64v.06c-31.23 51.57-48.53 80.39-56.42 94.78-4.25 7.75-7.5 13.68-6.74 18.3-19.71 16.09-44.68 45.54-62.7 74.27-27.4 43.68-53.6 139.55-54.7 143.61l-5.32 19.58 15.32-13.31c3.17-2.76 78.07-68.08 105.47-111.77 16-25.5 32-61.5 39-87.37l.61-.19c5.8-2 11.3-8.27 82.21-98.69l.08-.1a72.8 72.8 0 0 0 17.62 7.89c-15.88 15.71-33.6 38.06-46.47 58.81-25.14 40.55-48.91 129.3-49.9 133.06l-5.22 19.61 15.25-13.39c2.92-2.57 71.85-63.32 97-103.87 4.15-6.69 8.25-14 12.14-21.46-7.29 38.73-21.71 73.75-22 74.33l-3.51 8.42 86.66 1.16 1.85-2.81C521.18 649 542.06 598.31 549 550.12c5.86-40.76.52-72.57-5.51-93Q549.29 451 555 445c35.43-37.65 65.8-84 90.26-137.82 19.52-42.93 35.35-90.67 47.05-141.9 19.91-87.17 21-155.33 21-156l.1-9.28ZM176.92 518.89l-22.63-57.57C227.17 361.59 300 336.26 342.83 330.93c-17.25 35.46-29 60-38.19 79.46a73.1 73.1 0 0 0-6.4 40.37C251 457 195.89 502.21 176.92 518.89m91.84 23.61c-18.65 26.28-60.45 62.26-83.92 81.53 10.43-28.52 30.58-79.85 49.23-106.14a336.5 336.5 0 0 1 42.83-48.95 105.8 105.8 0 0 1 23.94-6.08 72.4 72.4 0 0 0 4.62 11.51c-7.61 20.71-21.91 47.28-36.7 68.13m-17.64 176.26c-18.92 30.16-63.21 72.67-87.12 94.63 9.35-31.08 28.34-89.46 47.26-119.63 17.25-27.5 41.9-56.57 60.46-71.61a88 88 0 0 0 8.58 5.44 90 90 0 0 0 8.56 6.38c-6.5 24.52-22.4 60.34-37.74 84.79m122.57-187.31C328.56 589 305 618.76 298.18 625.12c-3-1.44-7.88-5.2-10.32-7.3l-.71-.55-.38-.21c-3.58-1.95-8.3-5-10.48-7.08 3.54-8.63 23.07-41.2 60.93-103.74 28.55-47.15 55.73-67.77 68.86-67a6.29 6.29 0 0 1 5.91 4.09c5.4 12.06-4.28 44.74-38.3 88.12m27.57 103.12c-17 27.39-56.47 65.89-78.71 86.58 8.65-29.11 25.58-81.6 42.56-109C378.85 590 398.27 566 414.61 551l-1.53-1.66a73 73 0 0 0 8.72.53c.7 0 1.39 0 2.09-.05 3 9.2 4.17 19.75 4.13 30.88a339.3 339.3 0 0 1-26.76 53.87m77.22 56.52-61.86-.82c7.09-18.83 23-65.48 23.68-107.15.49-1.31 1-2.6 1.43-3.89l-1.42-.51a114.4 114.4 0 0 0-4-30.34 73 73 0 0 0 36.94-19.68c20.5-20.29 40.67-40.77 60.24-61.16 10.51 41.92 13.02 119.36-55.01 223.55m201.75-528.33c-18.08 79-56 190.68-134.21 273.73-26 27.67-53.42 55.74-81.41 83.44a60.81 60.81 0 0 1-73.61 9.13c28.07-38.53 40.4-72.71 32.29-90.75A18.51 18.51 0 0 0 406.83 427c-19.79-1.21-47.38 22.42-73.51 62.33a60.57 60.57 0 0 1-17.51-73.67c11.1-23.62 26.05-54.63 50-103.69 39.67-81.21 104.8-145.3 163.57-190.85l8.33 6.33 7.54-9.92-5.59-4.25a841 841 0 0 1 34-24.14C630.7 50.88 681 27.28 700.62 18.63c-1.03 21.5-5.05 77.08-20.39 144.13"/><path d="M570.1 201.4a58.36 58.36 0 1 0-33.31 106.39 59 59 0 0 0 10.62-1 58 58 0 0 0 37.52-24.22 58.48 58.48 0 0 0-14.83-81.17m4.68 74.18a46 46 0 1 1-46.14-71.44 46.4 46.4 0 0 1 8.36-.76 46 46 0 0 1 37.78 72.2m23.5-102.17 7.537-9.922 12.112 9.2-7.537 9.923zm24.207 18.391 7.53-9.914 12.112 9.2-7.53 9.915zm-72.643-55.181 7.536-9.921 12.112 9.2-7.536 9.922zm24.222 18.404 7.537-9.923 12.112 9.2-7.537 9.923zm72.655 55.194 7.537-9.922 12.112 9.2-7.537 9.922z"/></svg>