<svg xmlns="http://www.w3.org/2000/svg" width="238" height="186" viewBox="0 0 238 186"><defs><clipPath id="a"><path d="M0 185.173V.5h237.1v184.673z"/></clipPath></defs><path fill="#027efa" d="m14.293 156.493-3.031 8.958-3.058-8.958H7.198l-3.085 8.916-2.99-8.916H0l3.488 10.347h1.138l3.045-8.81 3.03 8.81h1.153l3.489-10.347z"/><g clip-path="url(#a)"><path fill="#027efa" d="M21.3 159.005q.946 0 1.662.363.718.362 1.124 1.1.406.74.407 1.863v4.508h-1.05v-4.405q0-1.225-.614-1.854-.613-.63-1.721-.629-.828 0-1.442.333a2.3 2.3 0 0 0-.945.96q-.333.629-.333 1.516v4.08h-1.05v-10.968h1.05v5.336l-.208-.4a2.83 2.83 0 0 1 1.183-1.322q.813-.48 1.936-.48"/></g><g clip-path="url(#a)"><path fill="#027efa" d="M30.627 166.914q-1.212 0-2.13-.51a3.7 3.7 0 0 1-1.433-1.405q-.517-.895-.517-2.047t.495-2.04a3.67 3.67 0 0 1 1.36-1.397 3.76 3.76 0 0 1 1.944-.51q1.093 0 1.944.496.85.495 1.337 1.39.488.894.488 2.061 0 .075-.007.155a2 2 0 0 0-.008.17h-6.755v-.783h6.193l-.413.31q0-.842-.362-1.5a2.7 2.7 0 0 0-.983-1.028q-.622-.369-1.434-.369a2.8 2.8 0 0 0-1.434.37 2.57 2.57 0 0 0-.99 1.034q-.355.665-.355 1.523v.163q0 .885.391 1.559.393.672 1.094 1.05.702.375 1.604.376.71 0 1.323-.251a2.74 2.74 0 0 0 1.057-.769l.591.68a3.3 3.3 0 0 1-1.293.946 4.4 4.4 0 0 1-1.707.326"/></g><g clip-path="url(#a)"><path fill="#027efa" d="M36.258 166.84v-7.761h1.005v2.114l-.103-.37a2.55 2.55 0 0 1 1.094-1.352q.768-.466 1.907-.466v1.02a1 1 0 0 1-.119-.007 1 1 0 0 0-.118-.007q-1.227 0-1.922.746t-.695 2.121v3.961z"/></g><g clip-path="url(#a)"><path fill="#027efa" d="M45.29 166.914q-1.212 0-2.13-.51a3.7 3.7 0 0 1-1.433-1.405q-.517-.895-.517-2.047t.495-2.04a3.67 3.67 0 0 1 1.36-1.397 3.76 3.76 0 0 1 1.944-.51q1.093 0 1.944.496.85.495 1.337 1.39.488.894.488 2.061 0 .075-.008.155a2 2 0 0 0-.007.17h-6.755v-.783h6.193l-.414.31q0-.842-.361-1.5a2.7 2.7 0 0 0-.983-1.028q-.623-.369-1.434-.369a2.8 2.8 0 0 0-1.434.37 2.57 2.57 0 0 0-.99 1.034q-.355.665-.355 1.523v.163q0 .885.391 1.559.392.672 1.094 1.05.702.375 1.604.376.71 0 1.323-.251a2.74 2.74 0 0 0 1.057-.769l.591.68a3.3 3.3 0 0 1-1.293.946 4.4 4.4 0 0 1-1.708.326"/></g><g clip-path="url(#a)"><path fill="#027efa" d="M59.509 166.928q-1.168 0-2.158-.392a5.1 5.1 0 0 1-1.715-1.1 5.1 5.1 0 0 1-1.13-1.671 5.3 5.3 0 0 1-.407-2.099q0-1.138.406-2.099a5 5 0 0 1 1.138-1.67 5.2 5.2 0 0 1 1.723-1.102 5.8 5.8 0 0 1 2.157-.391q1.124 0 2.114.376.99.379 1.67 1.131l-.694.695a3.85 3.85 0 0 0-1.404-.938 4.7 4.7 0 0 0-1.656-.288q-.931 0-1.729.317a4.1 4.1 0 0 0-1.39.902q-.591.584-.924 1.36a4.3 4.3 0 0 0-.332 1.707q0 .93.332 1.707.333.776.924 1.36.592.584 1.39.902a4.6 4.6 0 0 0 1.729.317 4.6 4.6 0 0 0 1.656-.295q.768-.295 1.404-.946l.695.695a4.3 4.3 0 0 1-1.67 1.138q-.99.384-2.13.384"/></g><g clip-path="url(#a)"><path fill="#027efa" d="M68.245 165.982q.843 0 1.493-.377a2.7 2.7 0 0 0 1.027-1.064q.377-.687.377-1.59 0-.915-.377-1.596a2.7 2.7 0 0 0-1.027-1.056 2.9 2.9 0 0 0-1.479-.377 2.9 2.9 0 0 0-1.477.377 2.77 2.77 0 0 0-1.035 1.056q-.385.68-.384 1.597 0 .901.384 1.589t1.027 1.064q.644.377 1.47.377m0 .932q-1.137 0-2.024-.51a3.76 3.76 0 0 1-1.405-1.412q-.516-.901-.517-2.04 0-1.168.517-2.055a3.73 3.73 0 0 1 1.405-1.39q.886-.502 2.025-.502 1.152 0 2.047.51.894.51 1.404 1.39t.51 2.047q0 1.153-.51 2.047a3.7 3.7 0 0 1-1.412 1.404q-.9.51-2.04.51"/></g><g clip-path="url(#a)"><path fill="#027efa" d="M78.31 159.005q.947 0 1.664.363a2.6 2.6 0 0 1 1.124 1.1q.405.74.406 1.863v4.508h-1.05v-4.405q0-1.225-.613-1.854-.614-.63-1.722-.629-.828 0-1.441.333a2.27 2.27 0 0 0-.946.96q-.333.629-.333 1.516v4.08h-1.05v-7.761h1.005v2.129l-.162-.4a2.83 2.83 0 0 1 1.183-1.322q.812-.48 1.936-.48"/></g><g clip-path="url(#a)"><path fill="#027efa" d="M83.13 159.079h4.803v.872H83.13zm3.665 7.835q-1.093 0-1.685-.592-.592-.59-.591-1.67v-7.287h1.05v7.228q0 .68.346 1.05.347.369.998.369.695 0 1.153-.4l.37.755a1.94 1.94 0 0 1-.747.414q-.436.132-.894.133"/></g><g clip-path="url(#a)"><path fill="#027efa" d="M90.343 166.84v-7.761h1.005v2.114l-.103-.37a2.55 2.55 0 0 1 1.093-1.352q.769-.466 1.907-.466v1.02a1 1 0 0 1-.118-.007 1 1 0 0 0-.118-.007q-1.227 0-1.923.746-.694.746-.694 2.121v3.961z"/></g><g clip-path="url(#a)"><path fill="#027efa" d="M99.24 165.982q.844 0 1.493-.377a2.7 2.7 0 0 0 1.028-1.064q.377-.687.377-1.59 0-.915-.377-1.596a2.7 2.7 0 0 0-1.028-1.056 2.9 2.9 0 0 0-1.478-.377 2.9 2.9 0 0 0-1.477.377 2.77 2.77 0 0 0-1.035 1.056q-.385.68-.384 1.597 0 .901.384 1.589t1.027 1.064q.644.377 1.47.377m0 .932q-1.137 0-2.024-.51a3.76 3.76 0 0 1-1.405-1.412q-.516-.901-.517-2.04 0-1.168.517-2.055a3.73 3.73 0 0 1 1.405-1.39q.886-.502 2.025-.502 1.152 0 2.047.51.894.51 1.404 1.39t.51 2.047q0 1.153-.51 2.047a3.7 3.7 0 0 1-1.412 1.404q-.9.51-2.04.51"/></g><g clip-path="url(#a)"><path fill="#027efa" d="M105.346 166.84v-10.968h1.05v10.967z"/></g><g clip-path="url(#a)"><path fill="#027efa" d="M9.798 177.25q.946 0 1.648.363.7.362 1.094 1.1.39.74.391 1.863v4.508h-1.05v-4.405q0-1.226-.583-1.855-.585-.628-1.648-.628-.799 0-1.382.333-.585.332-.902.96-.318.629-.318 1.516v4.08h-1.05v-4.406q0-1.226-.59-1.855-.592-.628-1.656-.628-.784 0-1.375.333a2.23 2.23 0 0 0-.909.96q-.318.629-.318 1.516v4.08H.101v-7.761h1.005v2.1l-.162-.37a2.77 2.77 0 0 1 1.145-1.324q.79-.48 1.87-.48 1.138 0 1.936.57.798.569 1.035 1.706l-.414-.162a3.06 3.06 0 0 1 1.205-1.53q.864-.584 2.077-.584"/></g><g clip-path="url(#a)"><path fill="#027efa" d="M19.08 185.158q-1.212 0-2.13-.51a3.7 3.7 0 0 1-1.433-1.404Q15 182.35 15 181.197t.495-2.04a3.67 3.67 0 0 1 1.36-1.397 3.76 3.76 0 0 1 1.944-.51q1.093 0 1.944.496.85.495 1.337 1.389.488.894.488 2.062 0 .075-.007.155a2 2 0 0 0-.008.17h-6.755v-.783h6.194l-.414.31q0-.842-.362-1.5a2.7 2.7 0 0 0-.983-1.028q-.622-.369-1.434-.369a2.8 2.8 0 0 0-1.434.37 2.57 2.57 0 0 0-.99 1.034q-.355.666-.355 1.523v.162q0 .887.391 1.56.393.672 1.094 1.05.702.375 1.604.376.71 0 1.323-.251a2.74 2.74 0 0 0 1.057-.769l.591.68a3.3 3.3 0 0 1-1.293.946 4.4 4.4 0 0 1-1.707.325"/></g><g clip-path="url(#a)"><path fill="#027efa" d="M28.008 185.158q-1.212 0-2.13-.51a3.7 3.7 0 0 1-1.433-1.404q-.517-.894-.517-2.047t.495-2.04a3.67 3.67 0 0 1 1.36-1.397 3.76 3.76 0 0 1 1.944-.51q1.093 0 1.944.496.85.495 1.337 1.389.488.894.488 2.062 0 .075-.007.155a2 2 0 0 0-.008.17h-6.755v-.783h6.193l-.413.31q0-.842-.362-1.5a2.7 2.7 0 0 0-.983-1.028q-.622-.369-1.434-.369a2.8 2.8 0 0 0-1.434.37 2.57 2.57 0 0 0-.99 1.034q-.355.666-.355 1.523v.162q0 .887.391 1.56.392.672 1.094 1.05.702.375 1.604.376.71 0 1.323-.251a2.74 2.74 0 0 0 1.057-.769l.591.68a3.3 3.3 0 0 1-1.293.946 4.4 4.4 0 0 1-1.707.325"/></g><g clip-path="url(#a)"><path fill="#027efa" d="M32.427 177.324h4.804v.872h-4.804zm3.666 7.834q-1.094 0-1.685-.59-.592-.593-.592-1.671v-7.288h1.05v7.229q0 .68.347 1.05.348.369.998.369.694 0 1.153-.4l.37.755a1.94 1.94 0 0 1-.747.414q-.437.132-.894.132"/></g><g clip-path="url(#a)"><path fill="#027efa" d="M41.724 185.158a6 6 0 0 1-1.818-.273q-.857-.273-1.345-.688l.473-.827q.474.355 1.212.613.74.26 1.552.259 1.11 0 1.596-.347.489-.348.488-.924 0-.429-.273-.673a1.8 1.8 0 0 0-.717-.37 9 9 0 0 0-.99-.214 20 20 0 0 1-1.087-.207 4 4 0 0 1-.983-.347 1.9 1.9 0 0 1-.717-.628q-.273-.398-.273-1.065 0-.635.355-1.137.355-.504 1.041-.791.688-.29 1.679-.289.754 0 1.507.2.754.2 1.242.525l-.459.842a3.5 3.5 0 0 0-1.108-.51 4.6 4.6 0 0 0-1.182-.155q-1.05 0-1.545.363-.495.36-.495.923 0 .443.273.695t.725.391q.45.14.99.23.54.088 1.079.214.54.126.99.34t.725.606q.273.392.273 1.027 0 .68-.377 1.175-.378.495-1.094.769t-1.737.273"/></g><g clip-path="url(#a)"><path fill="#027efa" d="M49.514 177.324h4.804v.872h-4.804zm3.666 7.834q-1.094 0-1.685-.59-.592-.593-.592-1.671v-7.288h1.05v7.229q0 .68.347 1.05.347.369.998.369.694 0 1.153-.4l.37.755a1.94 1.94 0 0 1-.747.414q-.437.132-.894.132"/></g><g clip-path="url(#a)"><path fill="#027efa" d="M60.688 177.25q.946 0 1.663.363a2.6 2.6 0 0 1 1.124 1.1q.406.74.406 1.863v4.508h-1.05v-4.405q0-1.225-.613-1.854-.614-.63-1.722-.629-.828 0-1.44.333-.615.332-.947.96-.333.629-.333 1.516v4.08h-1.05v-10.968h1.05v5.336l-.207-.4a2.83 2.83 0 0 1 1.183-1.323q.812-.48 1.936-.48"/></g><g clip-path="url(#a)"><path fill="#027efa" d="M70.015 185.158q-1.211 0-2.129-.51a3.7 3.7 0 0 1-1.433-1.404q-.517-.894-.517-2.047t.495-2.04a3.67 3.67 0 0 1 1.36-1.397 3.76 3.76 0 0 1 1.943-.51q1.094 0 1.944.496.85.495 1.338 1.389.487.894.487 2.062 0 .075-.007.155a2 2 0 0 0-.007.17h-6.755v-.783h6.193l-.414.31q0-.842-.362-1.5a2.7 2.7 0 0 0-.982-1.028q-.622-.369-1.435-.369a2.8 2.8 0 0 0-1.433.37 2.57 2.57 0 0 0-.99 1.034q-.355.666-.355 1.523v.162q0 .887.391 1.56.392.672 1.094 1.05.702.375 1.604.376.71 0 1.323-.251a2.74 2.74 0 0 0 1.056-.769l.592.68a3.3 3.3 0 0 1-1.293.946 4.4 4.4 0 0 1-1.708.325"/></g><g clip-path="url(#a)"><path fill="#027efa" d="M84.234 185.173q-1.167 0-2.158-.392a5.1 5.1 0 0 1-1.715-1.1 5.1 5.1 0 0 1-1.13-1.671 5.3 5.3 0 0 1-.407-2.099q0-1.138.407-2.099.406-.96 1.138-1.67a5.2 5.2 0 0 1 1.722-1.102 5.8 5.8 0 0 1 2.159-.391q1.122 0 2.113.376.99.379 1.67 1.131l-.695.695a3.85 3.85 0 0 0-1.403-.938 4.7 4.7 0 0 0-1.656-.289q-.931 0-1.73.318a4.1 4.1 0 0 0-1.39.902 4.2 4.2 0 0 0-.923 1.36 4.3 4.3 0 0 0-.333 1.707q0 .93.333 1.707.332.776.924 1.36.591.584 1.389.902a4.6 4.6 0 0 0 1.73.317 4.6 4.6 0 0 0 1.656-.295q.768-.296 1.403-.946l.695.695a4.3 4.3 0 0 1-1.67 1.138q-.99.384-2.129.384"/></g><g clip-path="url(#a)"><path fill="#027efa" d="M90.147 185.084v-10.967h1.05v10.967z"/></g><g clip-path="url(#a)"><path fill="#027efa" d="M97.286 184.227q.843 0 1.493-.377a2.7 2.7 0 0 0 1.028-1.064q.377-.687.377-1.59 0-.915-.377-1.596a2.7 2.7 0 0 0-1.028-1.056 2.9 2.9 0 0 0-1.478-.377q-.828 0-1.478.377a2.77 2.77 0 0 0-1.035 1.056q-.384.68-.384 1.597 0 .901.384 1.589.386.687 1.027 1.064.645.377 1.471.377m0 .931q-1.138 0-2.025-.51a3.75 3.75 0 0 1-1.404-1.411q-.517-.901-.517-2.04 0-1.168.517-2.055a3.7 3.7 0 0 1 1.404-1.39q.887-.501 2.025-.502 1.154 0 2.048.51t1.404 1.39q.51.879.51 2.047 0 1.152-.51 2.047a3.7 3.7 0 0 1-1.412 1.404q-.9.51-2.04.51"/></g><g clip-path="url(#a)"><path fill="#027efa" d="M106.598 185.158q-.99 0-1.729-.37a2.6 2.6 0 0 1-1.145-1.108q-.407-.739-.407-1.848v-4.508h1.05v4.39q0 1.242.613 1.87.614.629 1.722.628.812 0 1.411-.332.6-.333.917-.969.317-.634.317-1.522v-4.065h1.05v7.76h-1.005v-2.128l.163.384a2.87 2.87 0 0 1-1.146 1.338q-.775.48-1.81.48"/></g><g clip-path="url(#a)"><path fill="#027efa" d="M120.42 185.084v-10.967h-1.05v5.498l.148 1.567-.104 1.567v2.335zm-2.447-1.234a2.7 2.7 0 0 0 1.035-1.064q.376-.688.376-1.59 0-.916-.376-1.596a2.7 2.7 0 0 0-1.035-1.056 2.93 2.93 0 0 0-1.486-.377 2.86 2.86 0 0 0-1.463.377 2.76 2.76 0 0 0-1.034 1.056q-.385.68-.385 1.597 0 .901.385 1.589.383.687 1.034 1.064a2.87 2.87 0 0 0 1.463.377q.828 0 1.486-.377m-1.56 1.308q-1.107 0-1.987-.503a3.6 3.6 0 0 1-1.382-1.396q-.503-.894-.503-2.062 0-1.183.503-2.07a3.6 3.6 0 0 1 1.382-1.381q.88-.495 1.987-.496 1.021 0 1.826.458a3.34 3.34 0 0 1 1.286 1.338q.48.88.48 2.15 0 1.257-.473 2.144-.472.887-1.278 1.352-.805.466-1.84.466"/></g><g clip-path="url(#a)"><path fill="#027efa" d="M126.044 178.06v-3.943h.523l1.776 2.739 1.749-2.74h.523l.009 3.944h-.618l-.008-2.826-1.521 2.36h-.295l-1.52-2.32v2.786zm-2.67 0v-3.411h-1.454v-.532h3.535v.532h-1.444v3.411z"/></g><g clip-path="url(#a)"><path fill="#51cbff" d="M202.018 13.005h-1.845c0-4.15 3.376-7.526 7.527-7.526v1.845a5.69 5.69 0 0 0-5.682 5.681"/></g><g clip-path="url(#a)"><path fill="#51cbff" d="M204.13 28.646c0-2.978-1.063-5.79-3.01-8.008l.022-.024-.622-.615a10.25 10.25 0 0 1-3.063-7.335c0-5.69 4.628-10.319 10.318-10.319s10.318 4.63 10.318 10.319c0 2.776-1.088 5.381-3.063 7.335l-.622.615.02.024a12.06 12.06 0 0 0-3.008 8.008v2.037h-7.29zm9.135 0c0-2.775 1.088-5.38 3.063-7.334l.622-.616-.021-.023a12.06 12.06 0 0 0 3.01-8.01C219.938 5.958 214.481.5 207.774.5c-6.708 0-12.164 5.457-12.164 12.164 0 2.98 1.062 5.79 3.01 8.009l-.022.024.622.615a10.25 10.25 0 0 1 3.063 7.334v3.883h10.981z"/></g><g clip-path="url(#a)"><path fill="#027efa" d="M223.259 14.183c-1.186 0-2.354.155-3.48.45a12 12 0 0 1-.535 2.094 12 12 0 0 1 4.015-.698c6.615 0 11.996 5.381 11.996 11.996 0 6.614-5.381 11.996-11.996 11.996q-.197-.001-.392-.01l-32.686-.002-.02.001q-.216.01-.433.011c-5.342 0-9.69-4.346-9.69-9.69a9.68 9.68 0 0 1 7.94-9.527l.72-.132.036-.73a11.98 11.98 0 0 1 7.296-10.438c.212-.788.502-1.544.86-2.26-5.336 1.527-9.368 6.173-9.946 11.894a11.524 11.524 0 0 0-8.75 11.194c0 6.36 5.174 11.534 11.534 11.534q.248 0 .492-.012h32.55l.03.002q.229.009.459.01c7.632 0 13.842-6.209 13.842-13.841 0-7.633-6.21-13.842-13.842-13.842"/></g><g clip-path="url(#a)"><path fill="#51cbff" d="M202.296 37.192v-1.845h10.95v1.845z"/></g><g clip-path="url(#a)"><path fill="#0a1641" d="M16.617 135.804q-3.662 0-6.608-1.698t-4.67-4.883l-.08-.149v-2.557l-.424-4.83.53-4.829v-2.702q1.721-3.096 4.644-4.781 2.946-1.698 6.608-1.698 3.927 0 7.031 1.777 3.104 1.78 4.883 4.936 1.777 3.159 1.777 7.35 0 4.14-1.777 7.324-1.78 3.184-4.883 4.963-3.105 1.777-7.031 1.777M3.614 121.74q0-4.405 1.725-7.536l.027-.049V96.213H2.712v39.379h2.547v-6.518q-1.645-3.135-1.645-7.333zm12.843 11.675q3.184 0 5.731-1.46 2.548-1.458 4.008-4.112t1.46-6.103q-.001-3.504-1.46-6.13-1.461-2.627-4.008-4.086t-5.73-1.46q-3.186 0-5.706 1.46t-3.98 4.086-1.46 6.13q0 3.45 1.46 6.103 1.46 2.655 3.98 4.112 2.52 1.46 5.705 1.46"/></g><g clip-path="url(#a)"><path fill="#0a1641" d="M38.534 135.592v-27.703h2.547v7.589l-.265-.849q1.168-3.343 3.927-5.149 2.76-1.803 6.9-1.803v2.6a2 2 0 0 1-.32-.027 2 2 0 0 0-.318-.026q-4.617 0-7.217 2.893t-2.6 8.04v14.435z"/></g><g clip-path="url(#a)"><path fill="#0a1641" d="M58.967 107.889h2.653v27.703h-2.653zm1.326-6.74a2.1 2.1 0 0 1-1.54-.637q-.635-.637-.636-1.486 0-.901.637-1.54a2.1 2.1 0 0 1 1.54-.636q.953 0 1.565.61.61.611.61 1.513t-.61 1.539-1.566.637"/></g><g clip-path="url(#a)"><path fill="#0a1641" d="M84.333 146.1q-3.769 0-7.164-1.168-3.397-1.168-5.52-3.237l1.433-2.017q2.07 1.91 4.962 2.972t6.236 1.062q5.572-.001 8.2-2.6 2.627-2.602 2.627-8.174v-7.695l.53-4.14-.424-4.14v-9.074h2.547v24.731q0 6.951-3.37 10.216T84.333 146.1m-.53-13.905q3.343 0 5.89-1.406a10.3 10.3 0 0 0 4.007-3.927q1.46-2.52 1.46-5.758 0-3.29-1.46-5.785a10.17 10.17 0 0 0-4.007-3.874q-2.547-1.38-5.89-1.38-3.238 0-5.812 1.38a10.1 10.1 0 0 0-4.033 3.874q-1.46 2.494-1.46 5.785 0 3.237 1.46 5.758a10.24 10.24 0 0 0 4.033 3.927q2.574 1.406 5.812 1.406m-.213 2.388q-3.928 0-7.031-1.724a13.05 13.05 0 0 1-4.936-4.777q-1.83-3.051-1.831-6.978 0-3.982 1.83-7.006a12.9 12.9 0 0 1 4.937-4.724q3.104-1.696 7.03-1.697 3.769 0 6.768 1.618 2.998 1.62 4.75 4.617 1.75 3 1.751 7.192 0 4.139-1.751 7.164-1.752 3.026-4.75 4.67-3 1.645-6.767 1.645"/></g><g clip-path="url(#a)"><path fill="#0a1641" d="M122.544 107.677q3.395 0 5.917 1.3 2.52 1.3 3.927 3.927t1.407 6.501v16.187h-2.654v-15.975q0-4.67-2.361-7.111-2.363-2.44-6.608-2.441-3.237 0-5.625 1.326t-3.636 3.715q-1.246 2.389-1.247 5.732v14.754h-2.653v-39.38h2.653v19.372l-.477-.85q1.273-3.289 4.192-5.174 2.919-1.883 7.165-1.883"/></g><g clip-path="url(#a)"><path fill="#0a1641" d="M140.163 107.889h16.558v2.282h-16.558zm12.63 27.915q-3.66 0-5.598-2.017t-1.937-5.52V101.84h2.653v26.164q0 2.654 1.327 4.086t3.821 1.433q2.6 0 4.299-1.54l1.114 1.858q-1.061 1.01-2.574 1.486a10.3 10.3 0 0 1-3.104.478"/></g><g clip-path="url(#a)"><path fill="#0a1641" d="M14.126 86.656q-4.034.001-7.19-1.804-3.159-1.804-4.99-4.989-1.83-3.184-1.83-7.27 0-4.14 1.83-7.324t4.99-4.963q3.156-1.776 7.19-1.777 3.344 0 6.077 1.273 2.732 1.274 4.43 3.821l-1.962 1.433q-1.488-2.123-3.715-3.131-2.23-1.007-4.83-1.008-3.238 0-5.811 1.46-2.575 1.46-4.033 4.086-1.46 2.626-1.46 6.13 0 3.501 1.46 6.129 1.458 2.626 4.033 4.087 2.573 1.46 5.811 1.459 2.6 0 4.83-1.008 2.228-1.008 3.715-3.132l1.963 1.433q-1.7 2.548-4.431 3.821-2.734 1.275-6.077 1.274"/></g><g clip-path="url(#a)"><path fill="#0a1641" d="M42.943 84.268q3.184 0 5.732-1.46t3.98-4.113q1.434-2.652 1.433-6.103 0-3.502-1.433-6.13-1.433-2.625-3.98-4.086-2.548-1.46-5.732-1.46c-3.184 0-4.025.487-5.705 1.46q-2.52 1.46-3.98 4.086-1.46 2.628-1.46 6.13 0 3.45 1.46 6.103 1.46 2.654 3.98 4.113t5.705 1.46m0 2.387q-3.98 0-7.085-1.803-3.105-1.804-4.935-4.99-1.831-3.183-1.831-7.27 0-4.14 1.831-7.297t4.935-4.963q3.105-1.803 7.085-1.803t7.112 1.803a13.2 13.2 0 0 1 4.936 4.963q1.803 3.158 1.804 7.297 0 4.087-1.804 7.27-1.806 3.186-4.936 4.99t-7.112 1.803"/></g><g clip-path="url(#a)"><path fill="#0a1641" d="M78.554 58.073q3.395 0 5.917 1.3 2.52 1.3 3.927 3.927t1.407 6.502v16.186H87.15V70.013q0-4.669-2.362-7.11t-6.607-2.442q-3.237 0-5.625 1.326-2.39 1.327-3.636 3.715-1.247 2.39-1.247 5.733v14.753H65.02V58.285h2.547v7.695l-.371-.849q1.272-3.29 4.192-5.174t7.165-1.884"/></g><g clip-path="url(#a)"><path fill="#0a1641" d="M96.172 58.741h16.559v2.282H96.172zm12.631 27.915q-3.662 0-5.599-2.017t-1.937-5.519V52.69h2.654v26.165q0 2.653 1.327 4.086t3.82 1.433q2.6 0 4.3-1.539l1.114 1.857q-1.062 1.01-2.574 1.486a10.3 10.3 0 0 1-3.105.478"/></g><g clip-path="url(#a)"><path fill="#0a1641" d="M121.859 86.444V58.74h2.547v7.589l-.266-.849q1.168-3.343 3.928-5.149 2.76-1.803 6.899-1.803v2.6q-.159 0-.318-.027a2 2 0 0 0-.319-.026q-4.618 0-7.217 2.893-2.601 2.892-2.601 8.04v14.435z"/></g><g clip-path="url(#a)"><path fill="#0a1641" d="M152.852 84.268q3.186 0 5.732-1.46t3.98-4.113q1.434-2.652 1.433-6.103 0-3.502-1.433-6.13-1.433-2.625-3.98-4.086-2.546-1.46-5.732-1.46-3.185 0-5.705 1.46t-3.98 4.086q-1.46 2.628-1.46 6.13 0 3.45 1.46 6.103 1.46 2.654 3.98 4.113t5.705 1.46m0 2.387q-3.98 0-7.084-1.803-3.105-1.804-4.936-4.99-1.83-3.183-1.83-7.27 0-4.14 1.83-7.297t4.936-4.963q3.105-1.803 7.084-1.803 3.98 0 7.112 1.803a13.2 13.2 0 0 1 4.936 4.963q1.804 3.158 1.804 7.297 0 4.087-1.804 7.27-1.806 3.186-4.936 4.99t-7.112 1.803"/></g><g clip-path="url(#a)"><path fill="#0a1641" d="M174.93 86.444v-39.38h2.653v39.38z"/></g></svg>