<?xml version="1.0" encoding="UTF-8"?> <svg xmlns="http://www.w3.org/2000/svg" width="238" height="186" viewBox="0 0 238 186"><defs><clipPath id="nvwqa"><path d="M0 185.173V.5h237.1v184.673z"></path></clipPath></defs><g><g><path fill="#027efa" d="M14.293 156.493l-3.031 8.958-3.058-8.958H7.198l-3.085 8.916-2.99-8.916H0l3.488 10.347h1.138l3.045-8.81 3.03 8.81h1.153l3.489-10.347z"></path></g><g><g></g><g clip-path="url(#nvwqa)"><path fill="#027efa" d="M21.3 159.005c.63 0 1.185.12 1.662.363.479.241.853.608 1.124 1.1.27.494.407 1.114.407 1.863v4.508h-1.05v-4.405c0-.817-.204-1.435-.614-1.854-.409-.42-.982-.629-1.721-.629-.552 0-1.033.11-1.442.333a2.276 2.276 0 0 0-.945.96c-.222.42-.333.924-.333 1.516v4.08h-1.05v-10.968h1.05v5.336l-.208-.4a2.828 2.828 0 0 1 1.183-1.322c.542-.32 1.188-.48 1.936-.48"></path></g><g clip-path="url(#nvwqa)"><path fill="#027efa" d="M30.627 166.914c-.808 0-1.518-.17-2.13-.51a3.701 3.701 0 0 1-1.433-1.405c-.345-.596-.517-1.279-.517-2.047 0-.769.165-1.448.495-2.04a3.67 3.67 0 0 1 1.36-1.397 3.759 3.759 0 0 1 1.944-.51c.729 0 1.377.165 1.944.496.566.33 1.012.793 1.337 1.39.325.596.488 1.283.488 2.061 0 .05-.003.101-.007.155a1.992 1.992 0 0 0-.008.17h-6.755v-.783h6.193l-.413.31c0-.561-.121-1.061-.362-1.5a2.678 2.678 0 0 0-.983-1.028c-.414-.246-.893-.369-1.434-.369a2.8 2.8 0 0 0-1.434.37 2.57 2.57 0 0 0-.99 1.034c-.237.444-.355.951-.355 1.523v.163c0 .59.13 1.11.391 1.559.262.448.626.798 1.094 1.05.468.25 1.003.376 1.604.376.473 0 .914-.084 1.323-.251a2.741 2.741 0 0 0 1.057-.769l.591.68a3.33 3.33 0 0 1-1.293.946 4.37 4.37 0 0 1-1.707.326"></path></g><g clip-path="url(#nvwqa)"><path fill="#027efa" d="M36.258 166.84v-7.761h1.005v2.114l-.103-.37a2.554 2.554 0 0 1 1.094-1.352c.512-.31 1.148-.466 1.907-.466v1.02a.994.994 0 0 1-.119-.007 1.007 1.007 0 0 0-.118-.007c-.818 0-1.459.248-1.922.746-.463.498-.695 1.204-.695 2.121v3.961z"></path></g><g clip-path="url(#nvwqa)"><path fill="#027efa" d="M45.29 166.914c-.808 0-1.518-.17-2.13-.51a3.701 3.701 0 0 1-1.433-1.405c-.345-.596-.517-1.279-.517-2.047 0-.769.165-1.448.495-2.04a3.67 3.67 0 0 1 1.36-1.397 3.759 3.759 0 0 1 1.944-.51c.729 0 1.377.165 1.944.496.566.33 1.012.793 1.337 1.39.325.596.488 1.283.488 2.061 0 .05-.003.101-.008.155a1.988 1.988 0 0 0-.007.17h-6.755v-.783h6.193l-.414.31c0-.561-.12-1.061-.361-1.5a2.678 2.678 0 0 0-.983-1.028c-.415-.246-.893-.369-1.434-.369a2.8 2.8 0 0 0-1.434.37 2.57 2.57 0 0 0-.99 1.034c-.237.444-.355.951-.355 1.523v.163c0 .59.13 1.11.391 1.559.261.448.626.798 1.094 1.05.468.25 1.003.376 1.604.376.473 0 .914-.084 1.323-.251a2.741 2.741 0 0 0 1.057-.769l.591.68a3.33 3.33 0 0 1-1.293.946 4.37 4.37 0 0 1-1.708.326"></path></g><g clip-path="url(#nvwqa)"><path fill="#027efa" d="M59.509 166.928c-.779 0-1.498-.13-2.158-.392a5.091 5.091 0 0 1-1.715-1.1 5.084 5.084 0 0 1-1.13-1.671 5.331 5.331 0 0 1-.407-2.099c0-.759.135-1.458.406-2.099.271-.64.65-1.197 1.138-1.67a5.184 5.184 0 0 1 1.723-1.102 5.814 5.814 0 0 1 2.157-.391c.75 0 1.454.126 2.114.376.66.252 1.217.63 1.67 1.131l-.694.695a3.85 3.85 0 0 0-1.404-.938 4.678 4.678 0 0 0-1.656-.288c-.621 0-1.197.106-1.729.317a4.13 4.13 0 0 0-1.39.902c-.394.39-.702.842-.924 1.36a4.29 4.29 0 0 0-.332 1.707c0 .62.11 1.19.332 1.707.222.518.53.97.924 1.36.394.39.858.69 1.39.902a4.629 4.629 0 0 0 1.729.317c.591 0 1.143-.098 1.656-.295.512-.197.98-.512 1.404-.946l.695.695a4.315 4.315 0 0 1-1.67 1.138c-.66.256-1.37.384-2.13.384"></path></g><g clip-path="url(#nvwqa)"><path fill="#027efa" d="M68.245 165.982c.562 0 1.059-.126 1.493-.377a2.704 2.704 0 0 0 1.027-1.064c.251-.458.377-.988.377-1.59 0-.61-.126-1.142-.377-1.596a2.722 2.722 0 0 0-1.027-1.056 2.894 2.894 0 0 0-1.479-.377 2.89 2.89 0 0 0-1.477.377 2.769 2.769 0 0 0-1.035 1.056c-.257.454-.384.986-.384 1.597 0 .601.127 1.13.384 1.589.256.458.598.813 1.027 1.064.429.251.919.377 1.47.377m0 .932c-.758 0-1.433-.17-2.024-.51a3.755 3.755 0 0 1-1.405-1.412c-.344-.601-.517-1.281-.517-2.04 0-.778.173-1.464.517-2.055a3.727 3.727 0 0 1 1.405-1.39c.59-.334 1.266-.502 2.025-.502.768 0 1.45.17 2.047.51.596.34 1.064.803 1.404 1.39.34.586.51 1.269.51 2.047 0 .768-.17 1.451-.51 2.047a3.679 3.679 0 0 1-1.412 1.404c-.6.34-1.28.51-2.04.51"></path></g><g clip-path="url(#nvwqa)"><path fill="#027efa" d="M78.31 159.005c.631 0 1.186.12 1.664.363a2.61 2.61 0 0 1 1.124 1.1c.27.494.406 1.114.406 1.863v4.508h-1.05v-4.405c0-.817-.204-1.435-.613-1.854-.41-.42-.983-.629-1.722-.629-.552 0-1.032.11-1.441.333-.41.221-.725.542-.946.96-.222.42-.333.924-.333 1.516v4.08h-1.05v-7.761h1.005v2.129l-.162-.4a2.825 2.825 0 0 1 1.183-1.322c.541-.32 1.187-.48 1.936-.48"></path></g><g clip-path="url(#nvwqa)"><path fill="#027efa" d="M83.13 159.079h4.803v.872H83.13zm3.665 7.835c-.729 0-1.29-.198-1.685-.592-.395-.394-.591-.95-.591-1.67v-7.287h1.05v7.228c0 .453.115.803.346 1.05.232.246.564.369.998.369.463 0 .848-.133 1.153-.4l.37.755a1.942 1.942 0 0 1-.747.414c-.29.088-.589.133-.894.133"></path></g><g clip-path="url(#nvwqa)"><path fill="#027efa" d="M90.343 166.84v-7.761h1.005v2.114l-.103-.37a2.554 2.554 0 0 1 1.093-1.352c.513-.31 1.148-.466 1.907-.466v1.02a.994.994 0 0 1-.118-.007 1.007 1.007 0 0 0-.118-.007c-.818 0-1.459.248-1.923.746-.462.498-.694 1.204-.694 2.121v3.961z"></path></g><g clip-path="url(#nvwqa)"><path fill="#027efa" d="M99.24 165.982c.563 0 1.06-.126 1.493-.377a2.704 2.704 0 0 0 1.028-1.064c.251-.458.377-.988.377-1.59 0-.61-.126-1.142-.377-1.596a2.722 2.722 0 0 0-1.028-1.056 2.893 2.893 0 0 0-1.478-.377 2.89 2.89 0 0 0-1.477.377 2.769 2.769 0 0 0-1.035 1.056c-.257.454-.384.986-.384 1.597 0 .601.127 1.13.384 1.589.256.458.598.813 1.027 1.064.429.251.919.377 1.47.377m0 .932c-.758 0-1.433-.17-2.024-.51a3.755 3.755 0 0 1-1.405-1.412c-.344-.601-.517-1.281-.517-2.04 0-.778.173-1.464.517-2.055a3.727 3.727 0 0 1 1.405-1.39c.59-.334 1.266-.502 2.025-.502.768 0 1.45.17 2.047.51.596.34 1.064.803 1.404 1.39.34.586.51 1.269.51 2.047 0 .768-.17 1.451-.51 2.047a3.679 3.679 0 0 1-1.412 1.404c-.6.34-1.28.51-2.04.51"></path></g><g clip-path="url(#nvwqa)"><path fill="#027efa" d="M105.346 166.84v-10.968h1.05v10.967z"></path></g><g clip-path="url(#nvwqa)"><path fill="#027efa" d="M9.798 177.25c.63 0 1.18.12 1.648.363.467.241.832.608 1.094 1.1.26.494.391 1.114.391 1.863v4.508h-1.05v-4.405c0-.817-.194-1.436-.583-1.855-.39-.419-.939-.628-1.648-.628-.533 0-.993.11-1.382.333-.39.221-.69.542-.902.96-.212.42-.318.924-.318 1.516v4.08h-1.05v-4.406c0-.817-.196-1.436-.59-1.855-.395-.419-.946-.628-1.656-.628-.523 0-.98.11-1.375.333a2.227 2.227 0 0 0-.909.96c-.212.42-.318.924-.318 1.516v4.08H.101v-7.761h1.005v2.1l-.162-.37a2.77 2.77 0 0 1 1.145-1.324c.527-.32 1.15-.48 1.87-.48.758 0 1.404.19 1.936.57.532.379.877.948 1.035 1.706l-.414-.162a3.06 3.06 0 0 1 1.205-1.53c.576-.39 1.269-.584 2.077-.584"></path></g><g clip-path="url(#nvwqa)"><path fill="#027efa" d="M19.08 185.158c-.808 0-1.518-.17-2.13-.51a3.702 3.702 0 0 1-1.433-1.404c-.345-.596-.517-1.278-.517-2.047 0-.769.165-1.448.495-2.04a3.67 3.67 0 0 1 1.36-1.397 3.758 3.758 0 0 1 1.944-.51c.729 0 1.377.165 1.944.496.566.33 1.012.793 1.337 1.389.325.597.488 1.283.488 2.062 0 .05-.003.101-.007.155a1.99 1.99 0 0 0-.008.17h-6.755v-.783h6.194l-.414.31c0-.561-.121-1.061-.362-1.5a2.678 2.678 0 0 0-.983-1.028c-.414-.246-.893-.369-1.434-.369a2.8 2.8 0 0 0-1.434.37 2.57 2.57 0 0 0-.99 1.034c-.237.444-.355.951-.355 1.523v.162c0 .591.13 1.112.391 1.56.262.448.626.798 1.094 1.05.468.25 1.003.376 1.604.376.473 0 .914-.084 1.323-.251a2.74 2.74 0 0 0 1.057-.769l.591.68a3.33 3.33 0 0 1-1.293.946 4.37 4.37 0 0 1-1.707.325"></path></g><g clip-path="url(#nvwqa)"><path fill="#027efa" d="M28.008 185.158c-.808 0-1.518-.17-2.13-.51a3.702 3.702 0 0 1-1.433-1.404c-.345-.596-.517-1.278-.517-2.047 0-.769.165-1.448.495-2.04a3.67 3.67 0 0 1 1.36-1.397 3.758 3.758 0 0 1 1.944-.51c.729 0 1.377.165 1.944.496.566.33 1.012.793 1.337 1.389.325.597.488 1.283.488 2.062 0 .05-.003.101-.007.155a1.99 1.99 0 0 0-.008.17h-6.755v-.783h6.193l-.413.31c0-.561-.121-1.061-.362-1.5a2.678 2.678 0 0 0-.983-1.028c-.414-.246-.893-.369-1.434-.369a2.8 2.8 0 0 0-1.434.37 2.57 2.57 0 0 0-.99 1.034c-.237.444-.355.951-.355 1.523v.162c0 .591.13 1.112.391 1.56.262.448.626.798 1.094 1.05.468.25 1.003.376 1.604.376.473 0 .914-.084 1.323-.251a2.741 2.741 0 0 0 1.057-.769l.591.68a3.33 3.33 0 0 1-1.293.946 4.37 4.37 0 0 1-1.707.325"></path></g><g clip-path="url(#nvwqa)"><path fill="#027efa" d="M32.427 177.324h4.804v.872h-4.804zm3.666 7.834c-.73 0-1.291-.197-1.685-.59-.395-.395-.592-.952-.592-1.671v-7.288h1.05v7.229c0 .453.115.803.347 1.05.232.246.564.369.998.369.463 0 .847-.133 1.153-.4l.37.755a1.941 1.941 0 0 1-.747.414c-.291.088-.59.132-.894.132"></path></g><g clip-path="url(#nvwqa)"><path fill="#027efa" d="M41.724 185.158c-.64 0-1.246-.09-1.818-.273-.571-.182-1.02-.411-1.345-.688l.473-.827c.316.237.72.441 1.212.613.493.173 1.01.259 1.552.259.74 0 1.271-.116 1.596-.347.326-.232.488-.54.488-.924 0-.286-.09-.51-.273-.673a1.798 1.798 0 0 0-.717-.37 8.913 8.913 0 0 0-.99-.214c-.365-.059-.727-.128-1.087-.207a3.974 3.974 0 0 1-.983-.347 1.922 1.922 0 0 1-.717-.628c-.182-.266-.273-.62-.273-1.065 0-.423.118-.802.355-1.137.236-.335.584-.6 1.041-.791.459-.193 1.018-.289 1.679-.289.502 0 1.005.067 1.507.2.503.133.916.308 1.242.525l-.459.842a3.54 3.54 0 0 0-1.108-.51 4.63 4.63 0 0 0-1.182-.155c-.7 0-1.215.12-1.545.363-.33.24-.495.548-.495.923 0 .296.091.527.273.695.182.167.424.298.725.391.3.094.63.17.99.23.36.059.719.13 1.079.214.36.084.69.197.99.34.3.143.542.345.725.606.182.261.273.604.273 1.027 0 .454-.125.845-.377 1.175-.252.33-.616.587-1.094.769-.478.183-1.057.273-1.737.273"></path></g><g clip-path="url(#nvwqa)"><path fill="#027efa" d="M49.514 177.324h4.804v.872h-4.804zm3.666 7.834c-.73 0-1.291-.197-1.685-.59-.395-.395-.592-.952-.592-1.671v-7.288h1.05v7.229c0 .453.115.803.347 1.05.232.246.564.369.998.369.463 0 .847-.133 1.153-.4l.37.755a1.941 1.941 0 0 1-.747.414c-.291.088-.59.132-.894.132"></path></g><g clip-path="url(#nvwqa)"><path fill="#027efa" d="M60.688 177.25c.63 0 1.185.12 1.663.363a2.61 2.61 0 0 1 1.124 1.1c.27.494.406 1.114.406 1.863v4.508h-1.05v-4.405c0-.817-.204-1.435-.613-1.854-.409-.42-.983-.629-1.722-.629-.552 0-1.032.11-1.44.333-.41.221-.726.542-.947.96-.222.42-.333.924-.333 1.516v4.08h-1.05v-10.968h1.05v5.336l-.207-.4a2.826 2.826 0 0 1 1.183-1.323c.541-.32 1.187-.48 1.936-.48"></path></g><g clip-path="url(#nvwqa)"><path fill="#027efa" d="M70.015 185.158c-.808 0-1.517-.17-2.129-.51a3.702 3.702 0 0 1-1.433-1.404c-.345-.596-.517-1.278-.517-2.047 0-.769.164-1.448.495-2.04a3.67 3.67 0 0 1 1.36-1.397 3.758 3.758 0 0 1 1.943-.51c.73 0 1.377.165 1.944.496.567.33 1.013.793 1.338 1.389.325.597.487 1.283.487 2.062 0 .05-.002.101-.007.155a1.99 1.99 0 0 0-.007.17h-6.755v-.783h6.193l-.414.31c0-.561-.12-1.061-.362-1.5a2.678 2.678 0 0 0-.982-1.028c-.415-.246-.893-.369-1.435-.369a2.8 2.8 0 0 0-1.433.37 2.57 2.57 0 0 0-.99 1.034c-.237.444-.355.951-.355 1.523v.162c0 .591.13 1.112.391 1.56.261.448.626.798 1.094 1.05.468.25 1.003.376 1.604.376.473 0 .914-.084 1.323-.251a2.74 2.74 0 0 0 1.056-.769l.592.68a3.33 3.33 0 0 1-1.293.946 4.37 4.37 0 0 1-1.708.325"></path></g><g clip-path="url(#nvwqa)"><path fill="#027efa" d="M84.234 185.173c-.778 0-1.497-.13-2.158-.392a5.096 5.096 0 0 1-1.715-1.1 5.083 5.083 0 0 1-1.13-1.671 5.332 5.332 0 0 1-.407-2.099c0-.759.136-1.458.407-2.099.27-.64.65-1.197 1.138-1.67a5.19 5.19 0 0 1 1.722-1.102 5.82 5.82 0 0 1 2.159-.391c.747 0 1.453.126 2.113.376.66.252 1.217.63 1.67 1.131l-.695.695a3.85 3.85 0 0 0-1.403-.938 4.68 4.68 0 0 0-1.656-.289c-.621 0-1.197.106-1.73.318a4.132 4.132 0 0 0-1.39.902c-.394.389-.702.842-.923 1.36a4.29 4.29 0 0 0-.333 1.707c0 .62.11 1.19.333 1.707.221.518.53.97.924 1.36.394.39.857.69 1.389.902a4.638 4.638 0 0 0 1.73.317 4.57 4.57 0 0 0 1.656-.295c.512-.197.98-.513 1.403-.946l.695.695a4.32 4.32 0 0 1-1.67 1.138c-.66.256-1.37.384-2.129.384"></path></g><g clip-path="url(#nvwqa)"><path fill="#027efa" d="M90.147 185.084v-10.967h1.05v10.967z"></path></g><g clip-path="url(#nvwqa)"><path fill="#027efa" d="M97.286 184.227c.562 0 1.06-.126 1.493-.377a2.704 2.704 0 0 0 1.028-1.064c.251-.458.377-.988.377-1.59 0-.61-.126-1.142-.377-1.596a2.718 2.718 0 0 0-1.028-1.056 2.892 2.892 0 0 0-1.478-.377c-.552 0-1.044.125-1.478.377a2.768 2.768 0 0 0-1.035 1.056c-.256.454-.384.986-.384 1.597 0 .601.128 1.13.384 1.589.257.458.6.813 1.027 1.064.43.251.92.377 1.471.377m0 .931c-.759 0-1.433-.17-2.025-.51a3.751 3.751 0 0 1-1.404-1.411c-.345-.601-.517-1.281-.517-2.04 0-.779.172-1.464.517-2.055a3.723 3.723 0 0 1 1.404-1.39c.592-.334 1.266-.502 2.025-.502.769 0 1.452.17 2.048.51.596.34 1.064.803 1.404 1.39.34.586.51 1.268.51 2.047 0 .768-.17 1.451-.51 2.047a3.677 3.677 0 0 1-1.412 1.404c-.6.34-1.28.51-2.04.51"></path></g><g clip-path="url(#nvwqa)"><path fill="#027efa" d="M106.598 185.158c-.66 0-1.237-.123-1.729-.37a2.615 2.615 0 0 1-1.145-1.108c-.272-.493-.407-1.108-.407-1.848v-4.508h1.05v4.39c0 .828.204 1.451.613 1.87.409.42.983.628 1.722.628.541 0 1.012-.11 1.411-.332.4-.222.705-.545.917-.969.212-.423.317-.93.317-1.522v-4.065h1.05v7.76h-1.005v-2.128l.163.384a2.87 2.87 0 0 1-1.146 1.338c-.517.32-1.12.48-1.81.48"></path></g><g clip-path="url(#nvwqa)"><path fill="#027efa" d="M120.42 185.084v-10.967h-1.05v5.498l.148 1.567-.104 1.567v2.335zm-2.447-1.234a2.693 2.693 0 0 0 1.035-1.064c.25-.459.376-.988.376-1.59 0-.61-.125-1.143-.376-1.596a2.707 2.707 0 0 0-1.035-1.056 2.934 2.934 0 0 0-1.486-.377c-.541 0-1.029.125-1.463.377a2.764 2.764 0 0 0-1.034 1.056c-.257.453-.385.986-.385 1.597 0 .601.128 1.13.385 1.589.256.458.6.813 1.034 1.064.434.251.922.377 1.463.377.553 0 1.047-.126 1.486-.377zm-1.56 1.308c-.738 0-1.4-.167-1.987-.503a3.61 3.61 0 0 1-1.382-1.396c-.336-.596-.503-1.284-.503-2.062 0-.789.167-1.478.503-2.07a3.578 3.578 0 0 1 1.382-1.381c.586-.33 1.249-.496 1.987-.496.68 0 1.29.153 1.826.458.537.306.966.752 1.286 1.338.32.586.48 1.303.48 2.15 0 .838-.157 1.553-.473 2.144-.315.591-.741 1.042-1.278 1.352-.537.311-1.15.466-1.84.466"></path></g><g clip-path="url(#nvwqa)"><path fill="#027efa" d="M126.044 178.06v-3.943h.523l1.776 2.739 1.749-2.74h.523l.009 3.944h-.618l-.008-2.826-1.521 2.36h-.295l-1.52-2.32v2.786zm-2.67 0v-3.411h-1.454v-.532h3.535v.532h-1.444v3.411z"></path></g><g clip-path="url(#nvwqa)"><path fill="#51cbff" d="M202.018 13.005h-1.845c0-4.15 3.376-7.526 7.527-7.526v1.845a5.688 5.688 0 0 0-5.682 5.681"></path></g><g clip-path="url(#nvwqa)"><path fill="#51cbff" d="M204.13 28.646c0-2.978-1.063-5.79-3.01-8.008l.022-.024-.622-.615a10.245 10.245 0 0 1-3.063-7.335c0-5.69 4.628-10.319 10.318-10.319 5.69 0 10.318 4.63 10.318 10.319 0 2.776-1.088 5.381-3.063 7.335l-.622.615.02.024a12.063 12.063 0 0 0-3.008 8.008v2.037h-7.29zm9.135 0c0-2.775 1.088-5.38 3.063-7.334l.622-.616-.021-.023a12.064 12.064 0 0 0 3.01-8.01C219.938 5.958 214.481.5 207.774.5c-6.708 0-12.164 5.457-12.164 12.164 0 2.98 1.062 5.79 3.01 8.009l-.022.024.622.615a10.245 10.245 0 0 1 3.063 7.334v3.883h10.981z"></path></g><g clip-path="url(#nvwqa)"><path fill="#027efa" d="M223.259 14.183c-1.186 0-2.354.155-3.48.45a12.116 12.116 0 0 1-.535 2.094 11.961 11.961 0 0 1 4.015-.698c6.615 0 11.996 5.381 11.996 11.996 0 6.614-5.381 11.996-11.996 11.996-.132 0-.261-.005-.392-.01l-32.686-.002-.02.001c-.144.006-.288.011-.433.011-5.342 0-9.69-4.346-9.69-9.69 0-4.681 3.34-8.688 7.94-9.527l.72-.132.036-.73a11.976 11.976 0 0 1 7.296-10.438c.212-.788.502-1.544.86-2.26-5.336 1.527-9.368 6.173-9.946 11.894a11.524 11.524 0 0 0-8.75 11.194c0 6.36 5.174 11.534 11.534 11.534.165 0 .33-.004.492-.012h32.55l.03.002c.153.005.305.01.459.01 7.632 0 13.842-6.209 13.842-13.841 0-7.633-6.21-13.842-13.842-13.842"></path></g><g clip-path="url(#nvwqa)"><path fill="#51cbff" d="M202.296 37.192v-1.845h10.95v1.845z"></path></g><g clip-path="url(#nvwqa)"><path fill="#0a1641" d="M16.617 135.804c-2.442 0-4.644-.566-6.608-1.698-1.964-1.132-3.52-2.76-4.67-4.883l-.08-.149v-2.557l-.424-4.83.53-4.829v-2.702c1.147-2.064 2.696-3.657 4.644-4.781 1.964-1.132 4.166-1.698 6.608-1.698 2.617 0 4.962.593 7.031 1.777 2.07 1.186 3.697 2.832 4.883 4.936 1.185 2.106 1.777 4.556 1.777 7.35 0 2.76-.592 5.201-1.777 7.324-1.186 2.123-2.814 3.777-4.883 4.963-2.07 1.185-4.414 1.777-7.031 1.777zM3.614 121.74c0-2.937.574-5.448 1.725-7.536.008-.017.017-.033.027-.049V96.213H2.712v39.379h2.547v-6.518c-1.097-2.09-1.645-4.534-1.645-7.333zm12.843 11.675c2.123 0 4.033-.486 5.731-1.46 1.699-.972 3.034-2.343 4.008-4.112.972-1.769 1.46-3.804 1.46-6.103 0-2.336-.488-4.379-1.46-6.13-.974-1.751-2.31-3.113-4.008-4.086-1.698-.973-3.608-1.46-5.73-1.46-2.124 0-4.026.487-5.706 1.46-1.68.973-3.007 2.335-3.98 4.086-.974 1.751-1.46 3.794-1.46 6.13 0 2.3.486 4.334 1.46 6.103.973 1.77 2.3 3.14 3.98 4.112 1.68.974 3.582 1.46 5.705 1.46"></path></g><g clip-path="url(#nvwqa)"><path fill="#0a1641" d="M38.534 135.592v-27.703h2.547v7.589l-.265-.849c.778-2.229 2.088-3.945 3.927-5.149 1.84-1.202 4.14-1.803 6.9-1.803v2.6c-.107 0-.213-.008-.32-.027a1.938 1.938 0 0 0-.318-.026c-3.077 0-5.484.964-7.217 2.893-1.734 1.928-2.6 4.608-2.6 8.04v14.435z"></path></g><g clip-path="url(#nvwqa)"><path fill="#0a1641" d="M58.967 107.889h2.653v27.703h-2.653zm1.326-6.74a2.098 2.098 0 0 1-1.54-.637c-.423-.425-.636-.92-.636-1.486 0-.601.213-1.114.637-1.54a2.097 2.097 0 0 1 1.54-.636c.636 0 1.157.204 1.565.61.406.407.61.912.61 1.513 0 .602-.204 1.114-.61 1.539-.408.425-.929.637-1.566.637"></path></g><g clip-path="url(#nvwqa)"><path fill="#0a1641" d="M84.333 146.1c-2.513 0-4.9-.39-7.164-1.168-2.265-.779-4.105-1.857-5.52-3.237l1.433-2.017c1.38 1.274 3.034 2.264 4.962 2.972 1.928.708 4.007 1.062 6.236 1.062 3.715 0 6.448-.868 8.2-2.6 1.751-1.735 2.627-4.459 2.627-8.174v-7.695l.53-4.14-.424-4.14v-9.074h2.547v24.731c0 4.634-1.124 8.04-3.37 10.216-2.247 2.176-5.599 3.264-10.057 3.264m-.53-13.905c2.229 0 4.192-.468 5.89-1.406a10.299 10.299 0 0 0 4.007-3.927c.973-1.68 1.46-3.6 1.46-5.758 0-2.194-.487-4.122-1.46-5.785a10.173 10.173 0 0 0-4.007-3.874c-1.698-.92-3.661-1.38-5.89-1.38-2.159 0-4.096.46-5.812 1.38a10.112 10.112 0 0 0-4.033 3.874c-.974 1.663-1.46 3.591-1.46 5.785 0 2.158.486 4.077 1.46 5.758a10.235 10.235 0 0 0 4.033 3.927c1.716.938 3.653 1.406 5.812 1.406m-.213 2.388c-2.619 0-4.962-.574-7.031-1.724a13.048 13.048 0 0 1-4.936-4.777c-1.22-2.034-1.831-4.36-1.831-6.978 0-2.655.61-4.99 1.83-7.006a12.927 12.927 0 0 1 4.937-4.724c2.07-1.13 4.412-1.697 7.03-1.697 2.513 0 4.768.54 6.768 1.618 1.998 1.08 3.582 2.618 4.75 4.617 1.167 2 1.751 4.397 1.751 7.192 0 2.759-.584 5.147-1.751 7.164-1.168 2.017-2.752 3.574-4.75 4.67-2 1.097-4.255 1.645-6.767 1.645"></path></g><g clip-path="url(#nvwqa)"><path fill="#0a1641" d="M122.544 107.677c2.263 0 4.236.433 5.917 1.3 1.68.867 2.99 2.176 3.927 3.927.938 1.751 1.407 3.919 1.407 6.501v16.187h-2.654v-15.975c0-3.113-.787-5.483-2.361-7.111-1.575-1.627-3.778-2.441-6.608-2.441-2.158 0-4.033.442-5.625 1.326-1.593.885-2.804 2.123-3.636 3.715-.83 1.593-1.247 3.503-1.247 5.732v14.754h-2.653v-39.38h2.653v19.372l-.477-.85c.849-2.193 2.246-3.917 4.192-5.174 1.946-1.255 4.334-1.883 7.165-1.883"></path></g><g clip-path="url(#nvwqa)"><path fill="#0a1641" d="M140.163 107.889h16.558v2.282h-16.558zm12.63 27.915c-2.44 0-4.307-.672-5.598-2.017-1.292-1.344-1.937-3.184-1.937-5.52V101.84h2.653v26.164c0 1.77.442 3.13 1.327 4.086.884.955 2.157 1.433 3.821 1.433 1.733 0 3.166-.513 4.299-1.54l1.114 1.858c-.708.673-1.565 1.168-2.574 1.486a10.249 10.249 0 0 1-3.104.478"></path></g><g clip-path="url(#nvwqa)"><path fill="#0a1641" d="M14.126 86.656c-2.689 0-5.086-.6-7.19-1.804-2.106-1.203-3.769-2.866-4.99-4.989-1.22-2.123-1.83-4.546-1.83-7.27 0-2.76.61-5.202 1.83-7.324 1.221-2.123 2.884-3.777 4.99-4.963 2.104-1.184 4.501-1.777 7.19-1.777 2.23 0 4.254.424 6.077 1.273 1.822.85 3.298 2.123 4.43 3.821l-1.962 1.433c-.992-1.415-2.23-2.459-3.715-3.131-1.486-.671-3.097-1.008-4.83-1.008-2.158 0-4.096.487-5.811 1.46-1.717.973-3.061 2.335-4.033 4.086-.974 1.751-1.46 3.794-1.46 6.13 0 2.334.486 4.377 1.46 6.129.972 1.751 2.316 3.113 4.033 4.087 1.715.973 3.653 1.459 5.811 1.459 1.733 0 3.344-.336 4.83-1.008 1.486-.672 2.723-1.716 3.715-3.132l1.963 1.433c-1.133 1.699-2.61 2.972-4.431 3.821-1.823.85-3.848 1.274-6.077 1.274"></path></g><g clip-path="url(#nvwqa)"><path fill="#0a1641" d="M42.943 84.268c2.123 0 4.033-.486 5.732-1.46 1.698-.973 3.025-2.343 3.98-4.113.956-1.768 1.433-3.803 1.433-6.103 0-2.335-.477-4.378-1.433-6.13-.955-1.75-2.282-3.112-3.98-4.086-1.699-.973-3.609-1.46-5.732-1.46s-4.025.487-5.705 1.46c-1.68.974-3.007 2.335-3.98 4.086-.973 1.752-1.46 3.795-1.46 6.13 0 2.3.487 4.335 1.46 6.103.973 1.77 2.3 3.14 3.98 4.113 1.68.974 3.582 1.46 5.705 1.46m0 2.387c-2.653 0-5.015-.6-7.085-1.803-2.07-1.203-3.715-2.866-4.935-4.99-1.221-2.122-1.831-4.545-1.831-7.27 0-2.76.61-5.192 1.831-7.297 1.22-2.105 2.866-3.759 4.935-4.963 2.07-1.202 4.432-1.803 7.085-1.803 2.654 0 5.024.601 7.112 1.803a13.177 13.177 0 0 1 4.936 4.963c1.202 2.105 1.804 4.538 1.804 7.297 0 2.725-.602 5.148-1.804 7.27-1.204 2.124-2.849 3.787-4.936 4.99-2.088 1.203-4.458 1.803-7.112 1.803"></path></g><g clip-path="url(#nvwqa)"><path fill="#0a1641" d="M78.554 58.073c2.263 0 4.236.433 5.917 1.3 1.68.867 2.99 2.176 3.927 3.927.938 1.751 1.407 3.919 1.407 6.502v16.186H87.15V70.013c0-3.112-.787-5.483-2.362-7.11-1.574-1.628-3.777-2.442-6.607-2.442-2.158 0-4.033.443-5.625 1.326-1.593.885-2.805 2.123-3.636 3.715-.831 1.593-1.247 3.504-1.247 5.733v14.753h-2.653V58.285h2.547v7.695l-.371-.849c.848-2.194 2.246-3.918 4.192-5.174 1.946-1.256 4.334-1.884 7.165-1.884"></path></g><g clip-path="url(#nvwqa)"><path fill="#0a1641" d="M96.172 58.741h16.559v2.282H96.172zm12.631 27.915c-2.441 0-4.308-.672-5.599-2.017-1.292-1.344-1.937-3.184-1.937-5.519V52.69h2.654v26.165c0 1.77.442 3.13 1.327 4.086.884.955 2.157 1.433 3.82 1.433 1.734 0 3.167-.513 4.3-1.539l1.114 1.857c-.708.673-1.566 1.168-2.574 1.486a10.248 10.248 0 0 1-3.105.478"></path></g><g clip-path="url(#nvwqa)"><path fill="#0a1641" d="M121.859 86.444V58.74h2.547v7.589l-.266-.849c.779-2.229 2.088-3.945 3.928-5.149 1.84-1.202 4.14-1.803 6.899-1.803v2.6c-.106 0-.212-.008-.318-.027a1.937 1.937 0 0 0-.319-.026c-3.078 0-5.485.964-7.217 2.893-1.734 1.928-2.601 4.608-2.601 8.04v14.435z"></path></g><g clip-path="url(#nvwqa)"><path fill="#0a1641" d="M152.852 84.268c2.124 0 4.034-.486 5.732-1.46 1.698-.973 3.025-2.343 3.98-4.113.956-1.768 1.433-3.803 1.433-6.103 0-2.335-.477-4.378-1.433-6.13-.955-1.75-2.282-3.112-3.98-4.086-1.698-.973-3.608-1.46-5.732-1.46-2.123 0-4.025.487-5.705 1.46-1.68.974-3.007 2.335-3.98 4.086-.974 1.752-1.46 3.795-1.46 6.13 0 2.3.486 4.335 1.46 6.103.973 1.77 2.3 3.14 3.98 4.113 1.68.974 3.582 1.46 5.705 1.46m0 2.387c-2.653 0-5.014-.6-7.084-1.803-2.07-1.203-3.715-2.866-4.936-4.99-1.221-2.122-1.83-4.545-1.83-7.27 0-2.76.609-5.192 1.83-7.297 1.22-2.105 2.866-3.759 4.936-4.963 2.07-1.202 4.431-1.803 7.084-1.803 2.654 0 5.024.601 7.112 1.803a13.176 13.176 0 0 1 4.936 4.963c1.202 2.105 1.804 4.538 1.804 7.297 0 2.725-.602 5.148-1.804 7.27-1.204 2.124-2.849 3.787-4.936 4.99-2.088 1.203-4.458 1.803-7.112 1.803"></path></g><g clip-path="url(#nvwqa)"><path fill="#0a1641" d="M174.93 86.444v-39.38h2.653v39.38z"></path></g></g></g></svg> 