<svg xmlns="http://www.w3.org/2000/svg" xml:space="preserve" viewBox="0 0 205.17 175.37"><path d="M95.47 40.5h-.01z" style="fill:none"/><path d="M119.4.6c-.06.03-.12.06-.17.09-.23.11-.46.22-.69.35L96.26 13.9l25.94 15.05V0c-.95.02-1.9.22-2.8.6" style="fill:#81cadf"/><path d="m73.7 90.98 23.59-13.63-25.98-14.96.02 29.27c.85.01 1.64-.24 2.37-.68" style="fill:#60bdd8"/><path d="M148.73 75.61 95.52 44.89h-.01l-2.5-1.44-47.95-27.67a7.5 7.5 0 0 0-.54 2.7v55.6c0 1.74.95 3.35 2.48 4.19l21.9 12.79c.75.41 1.59.61 2.43.6l-.03-28.17.01-1.11 49.68 28.61q.225.12.45.21c.05.02.09.05.14.06 1.43.56 2.62.12 3.94-.72l8.31-4.73 13.26-7.91c.76-.57 1.33-1.38 1.64-2.29" style="fill:#94d1e3"/><path d="M148.99 39.36V18.51c0-2.67-1.46-5.13-3.8-6.41L125.94.92A7.5 7.5 0 0 0 122.2 0v28.95L78.77 3.75l-4.83-2.72c-2.1-1.18-3.98-1.27-6.13-.28-.05.03-.11.06-.16.09-.25.12-.5.25-.73.4l-7.63 4.44-10.97 6.37c.01.03 0 0 0 0-1.5.83-2.63 2.19-3.25 3.73.06.03 47.95 27.67 47.95 27.67l2.5 1.44h.01l53.21 30.72c.26-.99.26-2.8.26-2.8V39.36z" style="fill:#00a9ce"/><path d="M40.93 175.08h-2.39l-1.25-8.36h-.04l-2.46 6.44h-1.72l-2.46-6.44h-.04l-1.27 8.36h-2.39l2.32-12.95h1.74l2.92 7.32h.04l2.94-7.32h1.74zM30.2 152.9h-5.95L7.26 128.91h-.05v23.99H.81v-34.99h5.95l16.99 24.04h.05v-24.04h6.4zm43.05-17.49c0 10.85-7.95 18.24-18.34 18.24s-18.29-7.4-18.29-18.24c0-10.85 7.9-18.24 18.29-18.24s18.34 7.39 18.34 18.24m-29.64 0c0 6.95 4.75 11.7 11.3 11.7 6.6 0 11.3-4.75 11.3-11.7s-4.7-11.7-11.3-11.7c-6.55 0-11.3 4.75-11.3 11.7m45.36 3.54h-2.4v13.94h-6.4V117.9h12.89c6.95 0 11.3 4.3 11.3 10.6 0 5.2-3.05 9.1-8.2 10.15l10.35 14.24h-8.05zm-2.4-5.64h5.5c3.7 0 5.45-1.75 5.45-4.7 0-2.85-1.75-4.8-5.45-4.8h-5.5zm54.83 2.1c0 10.9-7.65 17.49-18.19 17.49h-11.19v-34.99h11.19c10.54 0 18.19 6.6 18.19 17.5m-22.99-11.6V147h5.1c6.3 0 11-4.05 11-11.59 0-7.55-4.7-11.59-11-11.59zm36.22 29.09h-6.45v-34.99h6.45zm6.91-17.49c0-11.05 7.85-18.24 18.89-18.24 5.4 0 9.35 1.65 12.49 3.85l-3.7 5.6c-2.15-1.5-5.1-2.9-8.85-2.9-6.8 0-11.85 4.55-11.85 11.7s5.05 11.7 11.85 11.7c3.75 0 6.7-1.4 8.85-2.9l3.7 5.6c-3.15 2.2-7.1 3.85-12.49 3.85-11.05-.02-18.89-7.22-18.89-18.26M0 174.11l1.05-2.16c1.04.61 2.26 1.13 3.5 1.13 1.22 0 1.83-.54 1.83-1.31 0-.67-.48-1.11-1.31-1.7l-2.09-1.5c-1.37-.94-2.05-2.02-2.05-3.4 0-2.02 1.37-3.29 3.85-3.29 1.29 0 2.59.35 3.79.91l-1.02 2.16c-.98-.5-1.91-.8-2.76-.8-.98 0-1.35.37-1.35.94 0 .5.3.83 1 1.33l2.24 1.57c1.44.98 2.22 2.02 2.22 3.64 0 2.44-1.7 3.74-4.42 3.74-1.69 0-3.26-.5-4.48-1.26m21.85-1.24v2.22h-7.77v-12.95h7.68v2.22h-5.31v2.59h4.85v2.18h-4.85v3.74zm26.76 2.22h-2.39v-12.95h2.39z"/><path d="M48.6 175.09h-2.46v-12.95h2.46zm4.79-6.48c0-4.09 2.9-6.75 6.99-6.75 2 0 3.46.61 4.62 1.42l-1.37 2.07c-.8-.55-1.89-1.07-3.27-1.07-2.52 0-4.38 1.68-4.38 4.33s1.87 4.33 4.38 4.33c1.39 0 2.48-.52 3.27-1.07l1.37 2.07c-1.16.81-2.63 1.42-4.62 1.42-4.09.01-6.99-2.66-6.99-6.75m29.15 0c0 4.01-2.94 6.75-6.79 6.75s-6.77-2.74-6.77-6.75 2.92-6.75 6.77-6.75 6.79 2.74 6.79 6.75m-10.96 0c0 2.57 1.76 4.33 4.18 4.33 2.44 0 4.18-1.76 4.18-4.33s-1.74-4.33-4.18-4.33c-2.43.01-4.18 1.76-4.18 4.33m26.8 6.48h-2.2l-6.29-8.88h-.02v8.88H87.5v-12.95h2.2l6.29 8.9h.02v-8.9h2.37zm16.74-6.52c0 4.03-2.83 6.47-6.73 6.47h-4.14v-12.95h4.14c3.9.01 6.73 2.45 6.73 6.48m-8.51-4.29v8.58h1.89c2.33 0 4.07-1.5 4.07-4.29s-1.74-4.29-4.07-4.29zm24.11 5.66c0 3.27-1.94 5.36-5.33 5.36-3.4 0-5.35-2.09-5.35-5.36v-7.84h2.5v7.7c0 1.87 1.11 3.07 2.85 3.07 1.72 0 2.83-1.2 2.83-3.07v-7.7h2.5zm4.92-1.37c0-4.09 2.9-6.75 6.99-6.75 2 0 3.46.61 4.62 1.42l-1.37 2.07c-.8-.55-1.89-1.07-3.27-1.07-2.52 0-4.38 1.68-4.38 4.33s1.87 4.33 4.38 4.33c1.39 0 2.48-.52 3.27-1.07l1.37 2.07c-1.16.81-2.63 1.42-4.62 1.42-4.09.01-6.99-2.66-6.99-6.75m24.91-4.25h-3.53v10.73h-2.37v-10.73h-3.53v-2.22h9.43zm17.2 4.25c0 4.01-2.94 6.75-6.79 6.75s-6.77-2.74-6.77-6.75 2.92-6.75 6.77-6.75 6.79 2.74 6.79 6.75m-10.97 0c0 2.57 1.76 4.33 4.18 4.33 2.44 0 4.18-1.76 4.18-4.33s-1.74-4.33-4.18-4.33c-2.42.01-4.18 1.76-4.18 4.33m19.07 1.32h-.89v5.16h-2.37V162.1h4.77c2.57 0 4.18 1.59 4.18 3.92 0 1.92-1.13 3.37-3.03 3.75l3.83 5.27h-2.98zm-.89-2.09H187c1.37 0 2.02-.65 2.02-1.74 0-1.05-.65-1.78-2.02-1.78h-2.04zm15.14-45.57v1.84h-.35v-4.04h1.78c.77 0 1.34.34 1.34 1.07 0 .47-.21.83-.76.96.32.08.65.31.65 1v.16c0 .33 0 .68.04.84h-.36c-.06-.18-.04-.52-.04-.81v-.14c0-.7-.27-.89-1.05-.89zm0-.32h1.33c.71 0 1.07-.25 1.07-.8 0-.5-.36-.75-1.05-.75h-1.36v1.55z"/><path d="M202.95 124.18h-.59l-.02-.08c-.05-.16-.05-.42-.05-.68v-.3c0-.62-.2-.78-.94-.78h-1.15v1.84h-.57v-4.25h1.89c.91 0 1.45.44 1.45 1.18 0 .46-.19.79-.56.97q.45.27.45.99v.16c0 .31 0 .67.04.81zm-.42-.22h.14c-.02-.19-.02-.47-.02-.73v-.16c0-.68-.32-.83-.57-.89l-.43-.11.43-.1c.45-.11.67-.39.67-.86 0-.87-.86-.96-1.23-.96h-1.67v3.82h.13v-1.84h1.37c.73 0 1.16.16 1.16 1v.3c0 .19 0 .39.02.53m-1.1-1.94h-1.44v-1.77h1.47c.96 0 1.16.46 1.16.85-.01.61-.41.92-1.19.92m-1.22-.22h1.22c.86 0 .97-.37.97-.69 0-.16 0-.64-.94-.64h-1.25z"/><path d="M201.24 125.81c-2.11 0-3.83-1.72-3.83-3.83s1.72-3.83 3.83-3.83 3.83 1.72 3.83 3.83c-.01 2.11-1.72 3.83-3.83 3.83m0-7.3c-1.91 0-3.47 1.56-3.47 3.47s1.56 3.47 3.47 3.47 3.47-1.56 3.47-3.47-1.56-3.47-3.47-3.47"/><path d="M201.24 125.92c-2.17 0-3.94-1.77-3.94-3.94s1.77-3.94 3.94-3.94 3.94 1.77 3.94 3.94c-.01 2.17-1.77 3.94-3.94 3.94m0-7.65c-2.05 0-3.72 1.67-3.72 3.72s1.67 3.72 3.72 3.72 3.72-1.67 3.72-3.72a3.726 3.726 0 0 0-3.72-3.72m0 7.3a3.59 3.59 0 0 1-3.58-3.58c0-1.97 1.61-3.58 3.58-3.58s3.58 1.61 3.58 3.58a3.59 3.59 0 0 1-3.58 3.58m0-6.95c-1.85 0-3.36 1.51-3.36 3.36s1.51 3.36 3.36 3.36 3.36-1.51 3.36-3.36-1.51-3.36-3.36-3.36"/></svg>