<svg xmlns="http://www.w3.org/2000/svg" width="188" height="41" fill="none" viewBox="0 0 188 41"><path fill="#07293A" d="M94.08 30.896c-.033-.116-.094-.231-.094-.347q-.006-3.32-.004-6.64v-.281c-2.272 1.62-4.729 2.124-7.393 1.425-1.967-.517-3.55-1.631-4.739-3.28-2.357-3.268-2.07-7.776.639-10.731 2.835-3.095 7.78-3.884 11.53-1.048.104-.345.222-.675.302-1.016.054-.232.158-.31.398-.305.803.015 1.606.005 2.408.006.253 0 .273.019.273.276q.002 10.83-.004 21.658c0 .094-.06.189-.093.283zM83.677 16.79c0 2.817 2.288 5.14 5.07 5.142 2.864.003 5.202-2.278 5.204-5.078.002-2.843-2.28-5.164-5.044-5.201-2.862-.038-5.252 2.301-5.23 5.137m-18.725 1.652c.36.973.924 1.744 1.71 2.35a5.12 5.12 0 0 0 5.99.209.8.8 0 0 1 .405-.125c.915-.011 1.829-.004 2.744-.006.383-.001.768-.015 1.151-.013.082 0 .214.027.235.078.03.07-.004.188-.049.26-1.278 2.044-3.112 3.33-5.446 3.869-4.641 1.07-9.276-1.864-10.255-6.53-.614-2.921.117-5.534 2.178-7.709 1.87-1.974 4.214-2.819 6.917-2.623 3.762.274 6.984 3.2 7.67 6.917a8.9 8.9 0 0 1 .013 3.058c-.03.19-.125.266-.306.265q-.472-.002-.943 0zm9.668-3.429c-.548-1.715-2.402-3.485-4.979-3.425-2.079.048-4.312 1.693-4.664 3.425zm99.997 3.429c.034.098.053.163.078.226 1.219 2.994 4.903 4.129 7.593 2.347a.9.9 0 0 1 .463-.138c.929-.013 1.857-.005 2.785-.008.356-.001.711-.014 1.067-.015.285-.001.342.1.192.34-1.243 1.991-3.022 3.26-5.285 3.829a8.524 8.524 0 0 1-10.404-6.409 8.527 8.527 0 0 1 6.77-10.298c4.598-.844 8.927 2.048 9.944 6.618.241 1.086.225 2.173.05 3.266-.025.153-.112.235-.269.24q-.095.002-.189 0h-12.504c-.085.002-.173.002-.291.002m.015-3.432h9.64c-.494-1.617-2.266-3.4-4.775-3.421-2.575-.02-4.367 1.807-4.865 3.42m-52.446 3.363c.165.332.291.633.456.911 1.522 2.554 4.802 3.293 7.287 1.652a.7.7 0 0 1 .364-.117q1.958-.016 3.917-.01c.086 0 .218.027.248.085.032.06-.015.184-.061.258-1.344 2.125-3.265 3.442-5.72 3.911-4.605.878-8.95-2.006-9.984-6.573-.833-3.683.989-7.617 4.343-9.374 3.247-1.7 7.109-1.231 9.785 1.242 1.967 1.818 2.898 4.09 2.77 6.776-.016.34-.079.678-.117 1.018-.018.15-.098.223-.249.222h-12.711zm.059-3.43h9.633c-.543-1.72-2.458-3.501-5.023-3.405-2.3.086-4.095 1.735-4.61 3.405m-9.521 9.001c-.868.588-1.773.996-2.76 1.204-3.622.767-7.191-1.02-8.761-4.38a8.1 8.1 0 0 1-.769-3.462V9.01c0-.333 0-.333.341-.333h2.786c.276 0 .281.006.281.28 0 2.779-.015 5.556.005 8.335.013 1.757.744 3.155 2.283 4.045 2.664 1.543 6.111-.17 6.515-3.215q.045-.343.045-.688.004-4.218.003-8.44c0-.311.006-.317.314-.317h2.806c.291 0 .3.01.3.288v16.02c0 .288-.008.296-.295.296-.83 0-1.661-.005-2.492.003-.178.002-.264-.052-.305-.228-.086-.362-.191-.723-.297-1.114m28.243-13.84c.337-.19.656-.389.99-.556a7.69 7.69 0 0 1 8.729 1.266c1.708 1.608 2.571 3.6 2.583 5.946.012 2.722.002 5.445.002 8.168 0 .296-.006.303-.306.303h-2.828c-.264 0-.284-.02-.284-.287q.001-4.2-.002-8.398c-.001-2.217-1.696-4.114-3.901-4.369-2.256-.261-4.375 1.276-4.823 3.512-.07.347-.107.705-.109 1.058-.008 2.708-.005 5.418-.005 8.127 0 .358 0 .358-.362.358h-2.785c-.25 0-.272-.021-.272-.277q.001-7.895-.004-15.792c0-.198.061-.266.265-.264q1.225.013 2.451.002c.148-.002.226.042.276.187.12.34.255.675.385 1.015m22.662-1.933c2.481.028 4.399.774 6.034 2.245.244.22.244.269.015.499l-1.955 1.954c-.191.19-.23.187-.433.015-1.537-1.295-3.277-1.655-5.161-.966-1.869.682-2.992 2.067-3.31 4.029-.537 3.32 2.262 6.248 5.605 5.9a5 5 0 0 0 2.877-1.277c.155-.137.262-.132.405.012.658.664 1.326 1.32 1.988 1.98.21.21.208.267-.016.47-1.786 1.616-3.888 2.369-6.288 2.242-3.977-.211-7.306-3.223-7.942-7.154a8.56 8.56 0 0 1 6.779-9.778c.551-.112 1.119-.138 1.402-.171M45.44 8.733h3.86c.261 0 .274.013.274.27v2.87c0 .255-.013.267-.276.267h-3.872v12.817c0 .345-.009.354-.35.354h-2.785c-.271 0-.289-.017-.29-.282 0-6.283-.006-12.567.003-18.85.003-2.997 1.967-5.416 4.885-6.048a5.8 5.8 0 0 1 2.492.01c.146.033.195.1.195.243-.004.942-.001 1.885-.002 2.828 0 .218-.07.264-.3.259-.502-.013-1.009-.067-1.503-.012-1.274.141-2.34 1.375-2.344 2.657q-.002 1.195 0 2.388c0 .07.007.137.012.229M55.72 9.844c.426-.258.82-.52 1.237-.743 1.021-.546 2.119-.847 3.273-.944.275-.022.32.022.321.296.002.949-.004 1.899.004 2.848.001.192-.062.265-.259.289a5.11 5.11 0 0 0-4.52 5.066c-.003 2.779 0 5.558 0 8.337 0 .316-.006.32-.314.321h-2.806c-.293 0-.3-.007-.3-.289V8.982c0-.274.008-.283.282-.283.803 0 1.607.004 2.408-.004.156 0 .24.046.294.196.119.318.252.633.38.953m41.189 25.36h.968v3.498c0 .924.374 1.375 1.243 1.375.275 0 .605-.011.836-.099v-.726a2.6 2.6 0 0 1-.484.044c-.506 0-.638-.275-.638-.825v-3.267h1.232v-.781h-1.232v-1.65h-.957v1.65h-.968zm4.185-3.278V40h.968v-3.047c0-1.166.44-1.826 1.441-1.826.814 0 1.21.528 1.21 1.474V40h.968v-3.564c0-1.661-.99-2.145-1.881-2.145-.946 0-1.463.462-1.738.957v-3.322zm10.74 5.456c.011-.143.011-.286.011-.462 0-1.188-.583-2.629-2.387-2.629-1.694 0-2.53 1.32-2.53 2.981 0 1.43.715 2.86 2.464 2.86 1.529 0 2.134-.957 2.354-1.672h-.979c-.176.407-.462.869-1.342.869-.946 0-1.518-.814-1.529-1.947zm-3.905-.671c.099-.979.528-1.661 1.518-1.661.946 0 1.408.737 1.419 1.661zM116.997 40v-4.796h1.122v-.781h-1.122v-.605c0-.814.22-1.166.792-1.166.143 0 .352.022.484.055v-.825c-.132-.044-.407-.066-.616-.066-1.232 0-1.628.913-1.628 1.936v.671h-.891v.781h.891V40zm6.459-5.577h-.968v2.904c0 1.397-.396 1.969-1.419 1.969-.924 0-1.155-.682-1.155-1.408v-3.465h-.957v3.663c0 1.573.902 2.046 1.848 2.046.88 0 1.408-.352 1.683-.968.011.352.022.693.044.836h.935c0-.33-.011-1.078-.011-1.628zm1.05.781h.968v3.498c0 .924.374 1.375 1.243 1.375.275 0 .605-.011.836-.099v-.726a2.6 2.6 0 0 1-.484.044c-.506 0-.638-.275-.638-.825v-3.267h1.232v-.781h-1.232v-1.65h-.957v1.65h-.968zm8.565-.781h-.968v2.904c0 1.397-.396 1.969-1.419 1.969-.924 0-1.155-.682-1.155-1.408v-3.465h-.957v3.663c0 1.573.902 2.046 1.848 2.046.88 0 1.408-.352 1.683-.968.011.352.022.693.044.836h.935c0-.33-.011-1.078-.011-1.628zM134.717 40h.968v-2.706c0-1.408.726-2.013 1.87-2.046v-.957c-.924.022-1.584.517-1.87 1.265 0-.539-.022-.979-.033-1.133h-.946c0 .297.011.737.011 1.518zm8.291-2.618c.011-.143.011-.286.011-.462 0-1.188-.583-2.629-2.387-2.629-1.694 0-2.53 1.32-2.53 2.981 0 1.43.715 2.86 2.464 2.86 1.529 0 2.134-.957 2.354-1.672h-.979c-.176.407-.462.869-1.342.869-.946 0-1.518-.814-1.529-1.947zm-3.905-.671c.099-.979.528-1.661 1.518-1.661.946 0 1.408.737 1.419 1.661zm10.168-2.42c-1.683 0-2.629 1.276-2.629 2.926 0 1.683.968 2.915 2.563 2.915 1.705 0 2.629-1.32 2.629-2.937 0-1.749-1.012-2.904-2.563-2.904m-.044.803c1.045 0 1.617.869 1.617 2.123 0 1.265-.583 2.112-1.595 2.112-1.001 0-1.617-.891-1.617-2.123 0-1.265.55-2.112 1.595-2.112M154.283 40v-4.796h1.122v-.781h-1.122v-.605c0-.814.22-1.166.792-1.166.143 0 .352.022.484.055v-.825c-.132-.044-.407-.066-.616-.066-1.232 0-1.628.913-1.628 1.936v.671h-.891v.781h.891V40zm4.765 0h.957v-3.091c0-1.056.429-1.782 1.32-1.782.88 0 1.078.638 1.078 1.353V40h.946v-3.201c0-.99.396-1.672 1.309-1.672.869 0 1.1.682 1.1 1.32V40h.946v-3.663c0-1.507-.847-2.046-1.76-2.046-.946 0-1.474.473-1.771 1.001-.22-.605-.759-1.001-1.551-1.001-.88 0-1.364.495-1.617.99 0-.286-.022-.693-.044-.858h-.924c.011.451.011.957.011 1.441zm13.812-2.618c.011-.143.011-.286.011-.462 0-1.188-.583-2.629-2.387-2.629-1.694 0-2.53 1.32-2.53 2.981 0 1.43.715 2.86 2.464 2.86 1.529 0 2.134-.957 2.354-1.672h-.979c-.176.407-.462.869-1.342.869-.946 0-1.518-.814-1.529-1.947zm-3.905-.671c.099-.979.528-1.661 1.518-1.661.946 0 1.408.737 1.419 1.661zm8.892-4.785v3.08c-.143-.319-.583-.715-1.573-.715-1.54 0-2.497 1.265-2.497 2.981 0 1.694.88 2.86 2.321 2.86.913 0 1.474-.341 1.749-.924 0 .22.022.649.055.792h.924c-.011-.539-.011-1.056-.011-1.573v-6.501zm-3.069 5.313c0-1.353.605-2.134 1.595-2.134 1.254 0 1.518.781 1.518 2.024 0 1.221-.297 2.189-1.595 2.189-.88 0-1.518-.737-1.518-2.079M180.457 40h.968v-5.577h-.968zm.968-6.875v-1.199h-.968v1.199zm5.736 2.992c0-1.265-.759-1.826-2.123-1.826-1.606 0-2.079.88-2.156 1.65h.935c.099-.429.264-.891 1.188-.891 1.045 0 1.199.594 1.199 1.089v.473h-.946c-1.661 0-2.64.572-2.64 1.815 0 .847.561 1.705 1.881 1.705 1.078 0 1.529-.495 1.727-.858.011.341.044.605.088.726h.924c-.033-.165-.077-.704-.077-1.221zm-.946 1.342c0 1.012-.176 1.914-1.518 1.914-.693 0-1.089-.418-1.089-1.001 0-.781.594-1.089 1.705-1.089h.902z"/><path fill="#F54036" d="m11.962 15.402 3.394-3.361a2.27 2.27 0 0 1 1.598-.657H29.75a2.644 2.644 0 0 0 2.644-2.644V2.644A2.644 2.644 0 0 0 29.75 0H16.778a2.644 2.644 0 0 0-2.644 2.644v5.915a2.27 2.27 0 0 1-.673 1.614l-2.948 2.92A3.48 3.48 0 0 1 8.066 14.1H2.644A2.644 2.644 0 0 0 0 16.743v6.096a2.644 2.644 0 0 0 2.644 2.644H8.74a2.644 2.644 0 0 0 2.644-2.644v-.552c0-.644.521-1.166 1.165-1.166h.784c.644 0 1.166.522 1.166 1.166v.166c0 .522-.21 1.022-.58 1.39l-3.42 3.387a3.48 3.48 0 0 1-2.447 1.008H2.644A2.644 2.644 0 0 0 0 30.88v6.096a2.644 2.644 0 0 0 2.644 2.644H8.74a2.644 2.644 0 0 0 2.644-2.644V31.55c0-.928.37-1.817 1.03-2.47l2.967-2.939c.426-.421 1-.657 1.598-.657h6.258a2.644 2.644 0 0 0 2.644-2.644v-6.096a2.644 2.644 0 0 0-2.644-2.643H17.14a2.644 2.644 0 0 0-2.644 2.643v.553c0 .644-.521 1.165-1.165 1.165h-.784a1.165 1.165 0 0 1-1.166-1.165v-.502c0-.522.21-1.022.58-1.39z"/></svg>